<?xml version="1.0" encoding="UTF-8"?>
<svg version="1.1" xmlns="http://www.w3.org/2000/svg" width="348" height="345">
<path d="M0 0 C3.49786519 1.64963546 5.77946218 3.53441707 8.51953125 6.2890625 C9.37740234 7.14886719 10.23527344 8.00867188 11.11914062 8.89453125 C12.00794922 9.79558594 12.89675781 10.69664063 13.8125 11.625 C14.68970703 12.50285156 15.56691406 13.38070313 16.47070312 14.28515625 C20.06626784 17.90492447 23.59929149 21.51870392 26.90063477 25.40942383 C32.10661221 31.39467123 37.80972047 36.90287602 43.43982315 42.48442268 C45.54486399 44.57189857 47.64619223 46.66304807 49.74655151 48.75523376 C55.71362591 54.69800206 61.68639271 60.63502485 67.66357422 66.56762695 C71.3328429 70.21003908 74.99716439 73.85736867 78.658535 77.50771904 C80.04802943 78.89103121 81.43941514 80.27244646 82.83276749 81.65187263 C84.78263271 83.5824096 86.72615535 85.51913305 88.66845703 87.45727539 C89.2379306 88.01798737 89.80740417 88.57869934 90.39413452 89.15640259 C94.07171888 92.84294739 97.0684771 96.69373983 100 101 C96.04 104.96 92.08 108.92 88 113 C90.06591881 117.13183762 92.52973588 119.79178686 95.76318359 122.97436523 C96.35201828 123.56188568 96.94085297 124.14940613 97.54753113 124.75473022 C99.49327666 126.6939901 101.44589778 128.62617687 103.3984375 130.55859375 C104.75413984 131.90802331 106.10932673 133.2579709 107.46401978 134.6084137 C111.0322796 138.16337071 114.60605869 141.71272272 118.18145752 145.26049805 C123.89826096 150.93419362 129.60841411 156.61456166 135.31526566 162.29826546 C137.30702496 164.27982921 139.30217897 166.25792694 141.29769897 168.23570251 C142.52459212 169.45576409 143.75137413 170.67593744 144.97802734 171.89624023 C145.5308992 172.44237473 146.08377106 172.98850922 146.65339661 173.55119324 C149.66225516 176.55121162 152.4094784 179.61987643 155 183 C153.54844106 186.33578513 151.72074062 188.52498603 149.1484375 191.08203125 C148.37886719 191.84966797 147.60929687 192.61730469 146.81640625 193.40820312 C146.01074219 194.20162109 145.20507812 194.99503906 144.375 195.8125 C143.59253906 196.59431641 142.81007813 197.37613281 142.00390625 198.18164062 C138.62892163 201.53143879 135.24301639 204.79776525 131.61791992 207.87548828 C125.63099908 213.08744156 120.1078025 218.7821288 114.51557732 224.40925789 C112.42772815 226.51000107 110.33665703 228.6074902 108.24476624 230.70420837 C103.80618089 235.15415682 99.37154927 239.60803227 94.9375 244.0625 C89.79160941 249.23206651 84.64407036 254.39996918 79.49228096 259.56365776 C77.44134084 261.62103673 75.39345753 263.68142471 73.34568787 265.74195862 C72.078183 267.01309877 70.81053597 268.28409719 69.54272461 269.55493164 C68.98201263 270.12080994 68.42130066 270.68668823 67.84359741 271.26971436 C64.06068274 275.05312604 60.1073714 278.57228121 56 282 C52.6752055 280.42411996 50.48368383 278.7182851 47.890625 276.0859375 C47.13652344 275.32539063 46.38242188 274.56484375 45.60546875 273.78125 C44.82816406 272.9871875 44.05085937 272.193125 43.25 271.375 C42.45722656 270.57320313 41.66445312 269.77140625 40.84765625 268.9453125 C38.89385507 266.96797154 36.94487897 264.98611091 35 263 C32.24453508 264.27044787 30.11744425 265.60360715 27.90356445 267.67358398 C27.29884811 268.23827896 26.69413177 268.80297394 26.0710907 269.38478088 C25.40438858 270.01963913 24.73768646 270.65449738 24.05078125 271.30859375 C23.32490311 271.99569931 22.59902496 272.68280487 21.85115051 273.39073181 C14.50747839 280.40657185 7.37101296 287.62655487 0.23046875 294.84765625 C-1.00020941 296.09095652 -2.23091228 297.33423233 -3.4616394 298.57748413 C-8.55056989 303.72061598 -13.63880636 308.86429447 -18.70629883 314.02856445 C-21.84689949 317.22833601 -24.9993986 320.41594125 -28.16025352 323.59570122 C-29.35334316 324.80052887 -30.54188546 326.00987746 -31.72571754 327.22380257 C-33.36423957 328.90306934 -35.01744371 330.56640578 -36.67504883 332.22680664 C-37.15760132 332.72890656 -37.64015381 333.23100647 -38.1373291 333.74832153 C-39.50740051 335.10194397 -39.50740051 335.10194397 -42 337 C-46.23637087 336.87367077 -48.5908466 333.80904242 -51.39453125 330.93359375 C-51.90497482 330.42127701 -52.4154184 329.90896027 -52.94132996 329.38111877 C-54.02145841 328.2942728 -55.09798535 327.20383738 -56.17114258 326.11010742 C-57.78950355 324.46093428 -59.41796165 322.82234467 -61.04882812 321.18554688 C-62.10218059 320.12300822 -63.15493334 319.05987464 -64.20703125 317.99609375 C-64.68332474 317.51555038 -65.15961823 317.03500702 -65.65034485 316.53990173 C-68.18730416 313.95075636 -70.60230899 311.30520499 -72.9465332 308.5402832 C-78.16645632 302.53124157 -83.90635237 297.01765894 -89.5620842 291.42388153 C-91.68318763 289.32498875 -93.80013985 287.22199079 -95.91592407 285.11773682 C-101.92618889 279.14090825 -107.94074399 273.16844764 -113.96533203 267.20605469 C-117.66264505 263.54633054 -121.35265466 259.87937871 -125.03804398 256.20764923 C-126.44114287 254.81260787 -127.84701454 253.42034959 -129.25568771 252.03093719 C-131.21821298 250.09481273 -133.17133582 248.1496535 -135.12255859 246.20214844 C-135.70641327 245.63065063 -136.29026794 245.05915283 -136.89181519 244.47033691 C-141.5982603 239.74009296 -141.5982603 239.74009296 -142 236 C-139.91015625 233.421875 -139.91015625 233.421875 -137.0625 230.75 C-136.12535156 229.85796875 -135.18820313 228.9659375 -134.22265625 228.046875 C-133.12244141 227.03367188 -133.12244141 227.03367188 -132 226 C-135.54787678 221.75985458 -139.18598637 217.77039513 -143.13169861 213.90112305 C-144.88150522 212.12057645 -146.50304133 210.2881266 -148.11938477 208.38671875 C-152.4114544 203.45253403 -157.01595051 198.85859045 -161.65234375 194.25 C-162.55247696 193.35128174 -163.45261017 192.45256348 -164.38002014 191.52661133 C-166.74711263 189.16413425 -169.11634639 186.80384888 -171.48669434 184.44464111 C-173.91550742 182.02614819 -176.34141103 179.60474054 -178.76757812 177.18359375 C-183.50907369 172.45307046 -188.25341898 167.72542027 -193 163 C-187.88579943 156.81666928 -182.31007989 151.16370868 -176.6328125 145.5 C-175.62907605 144.49558813 -174.62548794 143.49102802 -173.62203979 142.48632812 C-171.52747788 140.39029977 -169.43113874 138.2960701 -167.33349609 136.203125 C-164.66526325 133.54058135 -162.00153652 130.87358206 -159.33914375 128.2052002 C-157.26985523 126.13227114 -155.19815749 124.06176296 -153.12575912 121.99194336 C-152.14358322 121.01042748 -151.16212991 120.02818791 -150.18146133 119.04516602 C-145.24879216 114.10325842 -140.27217571 109.3098518 -134.97518921 104.76171875 C-131.07359064 101.28178917 -127.47534637 97.49235189 -123.828125 93.75 C-122.09564528 91.9903012 -120.36255481 90.23120353 -118.62890625 88.47265625 C-115.9215125 85.72177817 -113.21818286 82.96733911 -110.52490234 80.20263672 C-107.90807753 77.51957515 -105.2759251 74.85240029 -102.640625 72.1875 C-101.83328918 71.3512207 -101.02595337 70.51494141 -100.19415283 69.65332031 C-99.43946716 68.8950293 -98.68478149 68.13673828 -97.90722656 67.35546875 C-97.24740784 66.68153076 -96.58758911 66.00759277 -95.90777588 65.31323242 C-94 64 -94 64 -91.93060303 64.13378906 C-88.76637727 65.55349416 -86.60436093 68.08764028 -84.25 70.5625 C-83.49009766 71.34270508 -83.49009766 71.34270508 -82.71484375 72.13867188 C-81.46965595 73.41910084 -80.23388498 74.70867554 -79 76 C-76.01067836 74.65844369 -73.94032949 73.18247123 -71.64355469 70.85473633 C-71.00899353 70.21679642 -70.37443237 69.57885651 -69.72064209 68.92158508 C-68.70650238 67.88725594 -68.70650238 67.88725594 -67.671875 66.83203125 C-66.9640387 66.11899338 -66.25620239 65.40595551 -65.5269165 64.67131042 C-63.26314228 62.38973806 -61.00614329 60.10161658 -58.75 57.8125 C-56.50733494 55.54206125 -54.26317841 53.27315071 -52.01593018 51.00724792 C-50.61947599 49.59870969 -49.22570033 48.18750874 -47.83514404 46.77314758 C-44.03059708 42.93020703 -40.10848609 39.31728608 -36.01446533 35.78614807 C-32.45732124 32.63216673 -29.12942 29.2516782 -25.78125 25.87890625 C-25.03790405 25.13414536 -24.29455811 24.38938446 -23.52868652 23.62205505 C-21.18340699 21.27123255 -18.84165164 18.91693569 -16.5 16.5625 C-14.89867039 14.95614801 -13.29711002 13.35002603 -11.6953125 11.74414062 C-7.79420527 7.83208015 -3.8959758 3.91717048 0 0 Z " fill="#39B54A" transform="translate(193,0)"/>
<path d="M0 0 C7.0802703 1.85162735 12.6959145 2.53441115 19.625 -0.0625 C24.95598503 -2.05111613 29.83305513 -1.56631736 35.19921875 0.171875 C37.44648129 0.78153863 37.44648129 0.78153863 40.125 -1.5 C40.929375 -0.38625 40.929375 -0.38625 41.75 0.75 C44.29757171 3.69981987 46.87429984 5.37709378 50.125 7.5 C51.82828319 9.1292274 53.50661281 10.78641357 55.125 12.5 C55.785 12.17 56.445 11.84 57.125 11.5 C62.68849686 10.55013468 65.77167449 12.8637809 70.171875 15.89453125 C74.44602357 19.40788138 74.80166876 23.55998214 75.75 28.6875 C77.04199258 35.27968818 78.95955113 40.429707 82.375 46.1875 C87.88298932 55.75511348 87.29879034 66.77143713 86.125 77.5 C85.795 78.49 85.465 79.48 85.125 80.5 C85.17527344 81.71042969 85.22554687 82.92085938 85.27734375 84.16796875 C85.33785206 88.976729 83.74891108 92.54041716 81.6875 96.8125 C81.04219125 98.2040668 80.39762971 99.5959804 79.75390625 100.98828125 C79.21636719 102.14714844 78.67882812 103.30601562 78.125 104.5 C77.10694396 107.55416813 76.99124485 109.67936961 77 112.875 C76.99742187 113.81085938 76.99484375 114.74671875 76.9921875 115.7109375 C77.12104602 118.41696646 77.53602441 120.8605168 78.125 123.5 C78.6875 126.9375 78.6875 126.9375 78.125 130.5 C75.16317048 134.04907041 71.68480133 136.17081319 67.17163086 137.12329102 C63.87329024 137.41979092 60.62370107 137.52986787 57.3125 137.5625 C56.18134766 137.60826172 55.05019531 137.65402344 53.88476562 137.70117188 C45.66522822 137.91167819 45.66522822 137.91167819 43.30078125 136.10986328 C41.14696478 133.16088782 41.95136045 130.03067089 42.125 126.5 C41.135 126.5 40.145 126.5 39.125 126.5 C37.5546875 124.78515625 37.5546875 124.78515625 36 122.5625 C35.48179687 121.83160156 34.96359375 121.10070312 34.4296875 120.34765625 C33.99914062 119.73792969 33.56859375 119.12820312 33.125 118.5 C32.01373341 117.16098208 32.01373341 117.16098208 29.18359375 117.40234375 C27.98863281 117.41394531 26.79367188 117.42554688 25.5625 117.4375 C24.36496094 117.44652344 23.16742188 117.45554687 21.93359375 117.46484375 C20.54333984 117.48224609 20.54333984 117.48224609 19.125 117.5 C19.125 114.86 19.125 112.22 19.125 109.5 C10.39986507 107.64413674 2.87242106 110.10302051 -4.5625 114.8125 C-7.18779585 116.58787993 -9.76018135 118.41586089 -12.31640625 120.2890625 C-17.02832124 123.6535771 -19.86436638 125.30912376 -25.875 124.5 C-26.64199219 124.33242187 -27.40898437 124.16484375 -28.19921875 123.9921875 C-31.14389883 123.45053832 -33.94444825 123.25939378 -36.9375 123.1875 C-37.95972656 123.15011719 -38.98195313 123.11273438 -40.03515625 123.07421875 C-43.57898896 123.60554993 -44.46608681 124.96087528 -46.875 127.5 C-48.195 127.5 -49.515 127.5 -50.875 127.5 C-51.205 126.84 -51.535 126.18 -51.875 125.5 C-52.61105469 125.52320313 -53.34710938 125.54640625 -54.10546875 125.5703125 C-55.56919922 125.59738281 -55.56919922 125.59738281 -57.0625 125.625 C-58.02542969 125.64820313 -58.98835938 125.67140625 -59.98046875 125.6953125 C-63.04000209 125.48886626 -65.08063254 124.71298909 -67.875 123.5 C-70.20361633 122.95119353 -72.53593762 122.50499998 -74.88671875 122.0625 C-76.875 121.5 -76.875 121.5 -78.875 119.5 C-80.86321313 119.10235737 -82.86444339 118.76224651 -84.875 118.5 C-84.875 117.51 -84.875 116.52 -84.875 115.5 C-85.9475 115.438125 -87.02 115.37625 -88.125 115.3125 C-92.67667803 114.32630309 -93.14159024 113.08760031 -95.875 109.5 C-97.55832155 108.82019707 -99.24340172 108.143544 -100.9453125 107.51171875 C-104.23260345 105.78822005 -106.50343441 103.01737405 -109.05078125 100.36328125 C-111.88121028 97.47224347 -114.28805386 95.84375218 -118.2734375 94.98046875 C-125.43217558 93.42640096 -129.3514758 90.888989 -134.48828125 85.65625 C-137.1013658 83.29549276 -139.67661226 81.93996677 -142.875 80.5 C-142.84244792 78.44921875 -142.80989583 76.3984375 -142.77734375 74.34765625 C-142.66938816 72.48267859 -142.66938816 72.48267859 -143.875 71.5 C-143.91563832 69.83382885 -143.917721 68.16611905 -143.875 66.5 C-142.4209375 66.7784375 -142.4209375 66.7784375 -140.9375 67.0625 C-139.926875 67.206875 -138.91625 67.35125 -137.875 67.5 C-136.53851983 66.38898816 -136.53851983 66.38898816 -136.75 63.5625 C-136.66174336 60.58454272 -136.66174336 60.58454272 -137.875 58.5 C-138.81488404 53.37335978 -138.81488404 53.37335978 -137.875 50.5 C-135.49916515 48.58600968 -133.05946357 47.27885612 -130.34765625 45.88671875 C-127.4115489 44.24008667 -125.94425545 42.10572909 -123.875 39.5 C-120.11192901 38.85752447 -119.11653166 39.3389789 -115.875 41.5 C-113.41758463 42.00014953 -113.41758463 42.00014953 -110.875 41.5 C-110.25625 40.84 -109.6375 40.18 -109 39.5 C-106.875 37.5 -106.875 37.5 -103.375 37.0625 C-99.875 37.5 -99.875 37.5 -97.9375 39.0625 C-95.18610905 40.98013611 -93.33580293 40.3871137 -90.13305664 39.91625977 C-86.37869741 39.22416522 -82.73053261 38.23782293 -79.0625 37.1875 C-78.27568848 36.96747314 -77.48887695 36.74744629 -76.67822266 36.52075195 C-72.27936037 35.26812871 -68.01229987 33.8566524 -63.75 32.1875 C-59.20313779 30.45002415 -55.72262255 30.05930704 -50.875 30.5 C-50.215 30.83 -49.555 31.16 -48.875 31.5 C-46.54331782 31.59715342 -44.20870043 31.62978217 -41.875 31.625 C-40.616875 31.62757813 -39.35875 31.63015625 -38.0625 31.6328125 C-34.97822182 31.72227358 -34.97822182 31.72227358 -32.875 30.5 C-33.535 30.17 -34.195 29.84 -34.875 29.5 C-34.30155063 26.63275314 -34.0135485 25.6385485 -31.875 23.5 C-31.70812552 20.91645782 -31.70812552 20.91645782 -31.875 18.5 C-33.855 17.51 -35.835 16.52 -37.875 15.5 C-38.25 12.25 -38.25 12.25 -37.875 8.5 C-31.49556796 2.74295157 -24.06607503 2.16567041 -15.875 2.5 C-15.545 1.51 -15.215 0.52 -14.875 -0.5 C-10.04455268 -2.91522366 -4.94465717 -1.33707566 0 0 Z " fill="#FEFEFE" transform="translate(198.875,104.5)"/>
<path d="M0 0 C3.49786519 1.64963546 5.77946218 3.53441707 8.51953125 6.2890625 C9.37740234 7.14886719 10.23527344 8.00867188 11.11914062 8.89453125 C12.00794922 9.79558594 12.89675781 10.69664063 13.8125 11.625 C14.68970703 12.50285156 15.56691406 13.38070313 16.47070312 14.28515625 C20.06626784 17.90492447 23.59929149 21.51870392 26.90063477 25.40942383 C32.10661221 31.39467123 37.80972047 36.90287602 43.43982315 42.48442268 C45.54486399 44.57189857 47.64619223 46.66304807 49.74655151 48.75523376 C55.71362591 54.69800206 61.68639271 60.63502485 67.66357422 66.56762695 C71.3328429 70.21003908 74.99716439 73.85736867 78.658535 77.50771904 C80.04802943 78.89103121 81.43941514 80.27244646 82.83276749 81.65187263 C84.78263271 83.5824096 86.72615535 85.51913305 88.66845703 87.45727539 C89.2379306 88.01798737 89.80740417 88.57869934 90.39413452 89.15640259 C90.92939758 89.69296982 91.46466064 90.22953705 92.0161438 90.78236389 C92.47440111 91.2374788 92.93265842 91.69259371 93.40480232 92.16149998 C95.81389512 94.93803183 97.86337779 98.00872891 100 101 C95.71 105.29 91.42 109.58 87 114 C80.25919575 108.47349666 74.1928871 102.30550441 68.0625 96.125 C66.98656273 95.04403726 65.91039269 93.96330617 64.83398438 92.8828125 C62.21996708 90.25787359 59.60911404 87.62981372 57 85 C52.45810431 88.85051635 48.00086294 92.77452015 43.625 96.8125 C42.82642578 97.54629883 42.82642578 97.54629883 42.01171875 98.29492188 C39.47290276 100.61280978 39.47290276 100.61280978 37 103 C35.44512357 103.3484563 33.88050305 103.65390005 32.3125 103.9375 C29.36154906 104.49341569 26.76474103 105.08642166 23.9375 106.125 C16.5575027 108.32329707 10.0782872 106.62444626 2.80859375 104.6796875 C-0.71811921 103.82621315 -3.40184681 103.54066129 -7 104 C-7.42796875 104.48339844 -7.8559375 104.96679688 -8.296875 105.46484375 C-10.75678635 107.68214917 -12.93011222 107.59763187 -16.1875 107.9375 C-21.9623681 108.69327133 -26.00173805 110.05984591 -31 113 C-31 115.31 -31 117.62 -31 120 C-29.02 120.99 -27.04 121.98 -25 123 C-24.8125 125.3125 -24.8125 125.3125 -25 128 C-26.4375 129.625 -26.4375 129.625 -28 131 C-28.33 131.99 -28.66 132.98 -29 134 C-28.01 134.33 -27.02 134.66 -26 135 C-29.70241282 137.46827522 -31.6591111 137.23759026 -36.0625 137.1875 C-37.93615234 137.17783203 -37.93615234 137.17783203 -39.84765625 137.16796875 C-43 137 -43 137 -45 136 C-51.07775216 135.60661798 -55.44455036 136.53322317 -61.0625 138.75 C-66.73809008 140.86860197 -72.39610865 142.80771269 -78.25 144.375 C-79.43078125 144.69210938 -80.6115625 145.00921875 -81.828125 145.3359375 C-84.6997158 145.93713262 -87.08444714 146.25939082 -90 146 C-90.61875 145.505 -91.2375 145.01 -91.875 144.5 C-95.01420433 142.28409106 -97.25483321 142.53185415 -101 143 C-101.66 143.680625 -102.32 144.36125 -103 145.0625 C-103.66 145.701875 -104.32 146.34125 -105 147 C-111.32142857 146.67857143 -111.32142857 146.67857143 -113 145 C-115.32828629 144.41389629 -115.32828629 144.41389629 -118 145 C-119.2100892 146.43902499 -120.41348131 147.88658369 -121.53125 149.3984375 C-124.11256005 152.21316388 -127.52881061 153.53572656 -131 155 C-131.020625 156.27875 -131.04125 157.5575 -131.0625 158.875 C-131.07410156 159.59429687 -131.08570313 160.31359375 -131.09765625 161.0546875 C-131.12649242 163.08185404 -131.12649242 163.08185404 -130 165 C-129.960008 166.99960012 -129.95653201 169.00047242 -130 171 C-131.75 172.125 -131.75 172.125 -134 173 C-136.140625 172.0546875 -136.140625 172.0546875 -138 171 C-137.84402344 171.59167969 -137.68804687 172.18335938 -137.52734375 172.79296875 C-135.5940246 180.64147627 -135.5940246 180.64147627 -137 185 C-136.2575 185.08507812 -135.515 185.17015625 -134.75 185.2578125 C-131.4426886 186.15041075 -130.28301897 187.36183798 -128 189.875 C-122.99887681 195.090324 -119.16489785 197.20424185 -112.0859375 198.47265625 C-110 199 -110 199 -107 201 C-109.47936883 206.82844198 -114.48313987 210.89292125 -118.875 215.3125 C-119.78636719 216.25673828 -120.69773437 217.20097656 -121.63671875 218.17382812 C-122.51714844 219.06134766 -123.39757812 219.94886719 -124.3046875 220.86328125 C-125.10890137 221.68094971 -125.91311523 222.49861816 -126.74169922 223.34106445 C-129 225 -129 225 -131.12036133 224.91113281 C-134.23734671 223.40021069 -136.44328393 220.90305014 -138.8125 218.4375 C-139.5559668 217.68629883 -139.5559668 217.68629883 -140.31445312 216.91992188 C-143.01457262 214.16420147 -145.58867235 211.33163475 -148.09472656 208.39868164 C-152.40000792 203.46589016 -157.01048015 198.86402801 -161.65234375 194.25 C-162.55247696 193.35128174 -163.45261017 192.45256348 -164.38002014 191.52661133 C-166.74711263 189.16413425 -169.11634639 186.80384888 -171.48669434 184.44464111 C-173.91550742 182.02614819 -176.34141103 179.60474054 -178.76757812 177.18359375 C-183.50907369 172.45307046 -188.25341898 167.72542027 -193 163 C-187.88579943 156.81666928 -182.31007989 151.16370868 -176.6328125 145.5 C-175.62907605 144.49558813 -174.62548794 143.49102802 -173.62203979 142.48632812 C-171.52747788 140.39029977 -169.43113874 138.2960701 -167.33349609 136.203125 C-164.66526325 133.54058135 -162.00153652 130.87358206 -159.33914375 128.2052002 C-157.26985523 126.13227114 -155.19815749 124.06176296 -153.12575912 121.99194336 C-152.14358322 121.01042748 -151.16212991 120.02818791 -150.18146133 119.04516602 C-145.24879216 114.10325842 -140.27217571 109.3098518 -134.97518921 104.76171875 C-131.07359064 101.28178917 -127.47534637 97.49235189 -123.828125 93.75 C-122.09564528 91.9903012 -120.36255481 90.23120353 -118.62890625 88.47265625 C-115.9215125 85.72177817 -113.21818286 82.96733911 -110.52490234 80.20263672 C-107.90807753 77.51957515 -105.2759251 74.85240029 -102.640625 72.1875 C-101.83328918 71.3512207 -101.02595337 70.51494141 -100.19415283 69.65332031 C-99.43946716 68.8950293 -98.68478149 68.13673828 -97.90722656 67.35546875 C-97.24740784 66.68153076 -96.58758911 66.00759277 -95.90777588 65.31323242 C-94 64 -94 64 -91.93060303 64.13378906 C-88.76637727 65.55349416 -86.60436093 68.08764028 -84.25 70.5625 C-83.49009766 71.34270508 -83.49009766 71.34270508 -82.71484375 72.13867188 C-81.46965595 73.41910084 -80.23388498 74.70867554 -79 76 C-76.01067836 74.65844369 -73.94032949 73.18247123 -71.64355469 70.85473633 C-71.00899353 70.21679642 -70.37443237 69.57885651 -69.72064209 68.92158508 C-68.70650238 67.88725594 -68.70650238 67.88725594 -67.671875 66.83203125 C-66.9640387 66.11899338 -66.25620239 65.40595551 -65.5269165 64.67131042 C-63.26314228 62.38973806 -61.00614329 60.10161658 -58.75 57.8125 C-56.50733494 55.54206125 -54.26317841 53.27315071 -52.01593018 51.00724792 C-50.61947599 49.59870969 -49.22570033 48.18750874 -47.83514404 46.77314758 C-44.03059708 42.93020703 -40.10848609 39.31728608 -36.01446533 35.78614807 C-32.45732124 32.63216673 -29.12942 29.2516782 -25.78125 25.87890625 C-25.03790405 25.13414536 -24.29455811 24.38938446 -23.52868652 23.62205505 C-21.18340699 21.27123255 -18.84165164 18.91693569 -16.5 16.5625 C-14.89867039 14.95614801 -13.29711002 13.35002603 -11.6953125 11.74414062 C-7.79420527 7.83208015 -3.8959758 3.91717048 0 0 Z " fill="#FEF100" transform="translate(193,0)"/>
<path d="M0 0 C3.17997341 1.42159492 5.36379012 3.95052564 7.74139404 6.42480469 C8.23703857 6.92560547 8.73268311 7.42640625 9.24334717 7.94238281 C11.96080266 10.7157962 14.55121349 13.56793947 17.07562256 16.51782227 C21.10245868 21.13183308 25.39731371 25.43955997 29.74920654 29.74511719 C30.57089325 30.56301727 31.39257996 31.38091736 32.23916626 32.22360229 C34.84164555 34.81396106 37.4473495 37.40103702 40.05389404 39.98730469 C43.49691851 43.40365381 46.93656406 46.82335354 50.37420654 50.24511719 C51.15764435 51.02025665 51.94108215 51.79539612 52.7482605 52.59402466 C60.73658934 60.54658959 60.73658934 60.54658959 63.92889404 64.86230469 C63.74139404 67.73730469 63.74139404 67.73730469 62.92889404 69.86230469 C63.91889404 70.19230469 64.90889404 70.52230469 65.92889404 70.86230469 C62.22648122 73.3305799 60.26978294 73.09989494 55.86639404 73.04980469 C54.61729248 73.04335937 53.36819092 73.03691406 52.08123779 73.03027344 C48.92889404 72.86230469 48.92889404 72.86230469 46.92889404 71.86230469 C40.85114188 71.46892267 36.48434368 72.39552785 30.86639404 74.61230469 C25.19080396 76.73090666 19.53278539 78.67001738 13.67889404 80.23730469 C12.49811279 80.55441406 11.31733154 80.87152344 10.10076904 81.19824219 C7.22917824 81.79943731 4.8444469 82.12169551 1.92889404 81.86230469 C1.00076904 81.11980469 1.00076904 81.11980469 0.05389404 80.36230469 C-3.08531029 78.14639575 -5.32593917 78.39415884 -9.07110596 78.86230469 C-9.73110596 79.54292969 -10.39110596 80.22355469 -11.07110596 80.92480469 C-11.73110596 81.56417969 -12.39110596 82.20355469 -13.07110596 82.86230469 C-19.39253453 82.54087612 -19.39253453 82.54087612 -21.07110596 80.86230469 C-23.39939225 80.27620098 -23.39939225 80.27620098 -26.07110596 80.86230469 C-27.28119515 82.30132968 -28.48458727 83.74888838 -29.60235596 85.26074219 C-32.18366601 88.07546857 -35.59991657 89.39803125 -39.07110596 90.86230469 C-39.09173096 92.14105469 -39.11235596 93.41980469 -39.13360596 94.73730469 C-39.14520752 95.45660156 -39.15680908 96.17589844 -39.16876221 96.91699219 C-39.19759837 98.94415873 -39.19759837 98.94415873 -38.07110596 100.86230469 C-38.03111395 102.86190481 -38.02763797 104.86277711 -38.07110596 106.86230469 C-39.82110596 107.98730469 -39.82110596 107.98730469 -42.07110596 108.86230469 C-44.21173096 107.91699219 -44.21173096 107.91699219 -46.07110596 106.86230469 C-45.83714111 107.74982422 -45.83714111 107.74982422 -45.59844971 108.65527344 C-43.66513056 116.50378096 -43.66513056 116.50378096 -45.07110596 120.86230469 C-44.32860596 120.94738281 -43.58610596 121.03246094 -42.82110596 121.12011719 C-39.51379455 122.01271544 -38.35412493 123.22414267 -36.07110596 125.73730469 C-31.06998276 130.95262869 -27.23600381 133.06654654 -20.15704346 134.33496094 C-18.07110596 134.86230469 -18.07110596 134.86230469 -15.07110596 136.86230469 C-17.55047479 142.69074667 -22.55424582 146.75522594 -26.94610596 151.17480469 C-27.85747314 152.11904297 -28.76884033 153.06328125 -29.70782471 154.03613281 C-30.58825439 154.92365234 -31.46868408 155.81117188 -32.37579346 156.72558594 C-33.18000732 157.54325439 -33.98422119 158.36092285 -34.81280518 159.20336914 C-37.07110596 160.86230469 -37.07110596 160.86230469 -39.19146729 160.7734375 C-42.30845267 159.26251537 -44.51438989 156.76535483 -46.88360596 154.29980469 C-47.62707275 153.54860352 -47.62707275 153.54860352 -48.38555908 152.78222656 C-51.08567857 150.02650615 -53.65977831 147.19393944 -56.16583252 144.26098633 C-60.47111388 139.32819485 -65.0815861 134.7263327 -69.72344971 130.11230469 C-70.62358292 129.21358643 -71.52371613 128.31486816 -72.4511261 127.38891602 C-74.81821859 125.02643894 -77.18745235 122.66615357 -79.55780029 120.3069458 C-81.98661337 117.88845288 -84.41251699 115.46704522 -86.83868408 113.04589844 C-91.58017965 108.31537515 -96.32452494 103.58772496 -101.07110596 98.86230469 C-95.95690539 92.67897396 -90.38118584 87.02601337 -84.70391846 81.36230469 C-83.70018201 80.35789282 -82.6965939 79.3533327 -81.69314575 78.34863281 C-79.59858384 76.25260446 -77.5022447 74.15837479 -75.40460205 72.06542969 C-72.73636921 69.40288604 -70.07264248 66.73588675 -67.41024971 64.06750488 C-65.34096119 61.99457583 -63.26926344 59.92406764 -61.19686508 57.85424805 C-60.21468918 56.87273217 -59.23323587 55.8904926 -58.25256729 54.9074707 C-53.31989812 49.96556311 -48.34328167 45.17215649 -43.04629517 40.62402344 C-39.1446966 37.14409386 -35.54645233 33.35465658 -31.89923096 29.61230469 C-30.16675123 27.85260589 -28.43366077 26.09350822 -26.70001221 24.33496094 C-23.99261845 21.58408285 -21.28928882 18.8296438 -18.5960083 16.06494141 C-15.97918348 13.38187984 -13.34703106 10.71470498 -10.71173096 8.04980469 C-9.90439514 7.21352539 -9.09705933 6.37724609 -8.26525879 5.515625 C-7.13323029 4.37818848 -7.13323029 4.37818848 -5.97833252 3.21777344 C-5.31851379 2.54383545 -4.65869507 1.86989746 -3.97888184 1.17553711 C-2.07110596 -0.13769531 -2.07110596 -0.13769531 0 0 Z " fill="#EC1D24" transform="translate(101.07110595703125,64.1376953125)"/>
<path d="M0 0 C5.55752348 4.63062265 10.70240212 9.5599454 15.80932617 14.67993164 C16.6622374 15.53109055 17.51514862 16.38224945 18.39390564 17.25920105 C20.71374889 19.57541783 23.03135409 21.89384372 25.34779143 24.21346593 C27.78140712 26.64962945 30.21747999 29.08333398 32.65315247 31.5174408 C36.73923575 35.60171012 40.82321804 39.68807136 44.90600586 43.77563477 C49.61832447 48.4934018 54.33424438 53.20754592 59.05203646 57.91983896 C63.11435004 61.97760805 67.17470356 66.03733071 71.23343831 70.09867948 C73.65252582 72.51932147 76.07227315 74.93929349 78.49379539 77.35750008 C81.19124363 80.05240833 83.88546469 82.75050223 86.57885742 85.44946289 C87.37634399 86.24492523 88.17383057 87.04038757 88.9954834 87.85995483 C92.55143725 91.42953573 95.97021844 94.95887956 99 99 C97.54844106 102.33578513 95.72074062 104.52498603 93.1484375 107.08203125 C92.37886719 107.84966797 91.60929687 108.61730469 90.81640625 109.40820312 C90.01074219 110.20162109 89.20507812 110.99503906 88.375 111.8125 C87.59253906 112.59431641 86.81007813 113.37613281 86.00390625 114.18164062 C82.62892163 117.53143879 79.24301639 120.79776525 75.61791992 123.87548828 C69.63099908 129.08744156 64.1078025 134.7821288 58.51557732 140.40925789 C56.42772815 142.51000107 54.33665703 144.6074902 52.24476624 146.70420837 C47.80618089 151.15415682 43.37154927 155.60803227 38.9375 160.0625 C33.79160941 165.23206651 28.64407036 170.39996918 23.49228096 175.56365776 C21.44134084 177.62103673 19.39345753 179.68142471 17.34568787 181.74195862 C16.078183 183.01309877 14.81053597 184.28409719 13.54272461 185.55493164 C12.98201263 186.12080994 12.42130066 186.68668823 11.84359741 187.26971436 C8.06068274 191.05312604 4.1073714 194.57228121 0 198 C-3.42482707 196.38223883 -5.65690522 194.57656756 -8.328125 191.8671875 C-9.12734375 191.06152344 -9.9265625 190.25585938 -10.75 189.42578125 C-11.575 188.58402344 -12.4 187.74226562 -13.25 186.875 C-14.51070312 185.60076172 -14.51070312 185.60076172 -15.796875 184.30078125 C-17.86915683 182.20495077 -19.93662393 180.10459287 -22 178 C-20.58460683 174.79008252 -18.88037968 172.62345155 -16.41015625 170.14453125 C-15.70826172 169.44005859 -15.00636719 168.73558594 -14.28320312 168.00976562 C-13.18395508 166.92211914 -13.18395508 166.92211914 -12.0625 165.8125 C-11.33353516 165.07580078 -10.60457031 164.33910156 -9.85351562 163.58007812 C-9.15033203 162.87947266 -8.44714844 162.17886719 -7.72265625 161.45703125 C-6.75984741 160.4976062 -6.75984741 160.4976062 -5.77758789 159.51879883 C-2.81056172 156.98372537 -0.10037911 156.88144148 3.640625 156.859375 C4.54683594 156.84003906 5.45304687 156.82070312 6.38671875 156.80078125 C8.27973798 156.76720792 10.17309115 156.74871971 12.06640625 156.74609375 C18.61842531 156.57001403 22.15949636 155.52309356 27 151 C27.49473296 147.53686931 27.20496385 144.98191982 26.49609375 141.5859375 C24.33551213 130.32369315 27.67586154 120.6842067 33.19140625 110.8828125 C34.24667589 108.42561459 34.16070978 106.47202078 34.0625 103.8125 C34.0085058 102.20910693 33.97954608 100.60417155 34 99 C34.33 98.67 34.66 98.34 35 98 C36.4458718 86.1497228 36.30687684 75.17977917 30.13378906 64.81298828 C26.78202999 59.10789793 25.47033279 53.53569642 24.45605469 47.02416992 C23.37083079 40.75438092 20.68096261 37.9935363 15.5625 34.1875 C11.4597639 32.28623205 8.22237956 32.59254015 4 34 C3.01 32.700625 3.01 32.700625 2 31.375 C-0.70025143 28.10993953 -3.79061018 25.74358129 -7.23046875 23.296875 C-9 22 -9 22 -11 20 C-11.8353125 20.556875 -11.8353125 20.556875 -12.6875 21.125 C-15 22 -15 22 -17.75 21.125 C-18.4925 20.75375 -19.235 20.3825 -20 20 C-15.83201899 14.9663614 -11.45719319 10.45586145 -6.625 6.0625 C-5.66400391 5.17981445 -5.66400391 5.17981445 -4.68359375 4.27929688 C-3.12568342 2.8492747 -1.56331302 1.42411391 0 0 Z " fill="#1075BC" transform="translate(249,84)"/>
</svg>
