<?xml version="1.0" encoding="UTF-8"?>
<svg id="Layer_1" xmlns="http://www.w3.org/2000/svg" version="1.1" viewBox="0 0 3100.3 551.8">
  <!-- Generator: Adobe Illustrator 29.6.1, SVG Export Plug-In . SVG Version: 2.1.1 Build 9)  -->
  <defs>
    <style>
      .st0 {
        fill: #fff;
      }

      .st1 {
        stroke: #000;
        stroke-miterlimit: 10;
      }

      .st2 {
        fill: #27d624;
      }

      .st3 {
        fill: #0a0a0a;
      }

      .st4 {
        fill: #fefefe;
      }

      .st5 {
        fill: #fcd319;
      }
    </style>
  </defs>
  <rect class="st5" x="16.8" y="23.5" width="536.6" height="368.3"/>
  <path class="st3" d="M540.2,326.6c0,.2-.3.8-.5,1-.8,1-4.8,3.8-6,4.6-7.2,4.8-14.5,6.5-21.5.2-7-6.3-5.9-8.4-6-13.5-7.6,2.6-13.2,9.2-17.8,15.4-6.8,9.1-8.4,15.3-12.1,25.7-5.6,15.6-16.1,33.8-34.4,20.6-14.4-10.4-7.9-22.9,1.3-34.1,6.2-7.5,15-12,22.7-17.8,19.1-14.3,33.6-34.1,42.8-56.1,5.6-13.3,6.9-26.2,4.5-40.4-.3-1.6-2.2-10.4-3.9-10.5s-2.9,1.3-3.7,1.5c-8.6,2.5-16.9.6-21.8-7.1-3-4.7-3.4-8,.5-12.3,3.3-3.6,6.4-3.1,10.7-4.7,10.1-3.6,21.9-14.7,27.1-24.1,2-3.6,2.7-7.7,2.3-11.9s-.4-3.8-1.2-3.7l-10.8,7.6c-4.2,2.1-9.1.5-12.4-2.5-2.6-2.3-2.4-2.8-6.1-4-18.7-6.6-29.1,1-39.7,15.3-1.8,2.5-3.1,5-5.3,7.3-3.7,3.9-8.4,7.8-13.9,8.6s-12.1.5-10.7-6.6c.3-1.4,1.2-1.7,1-3.6-.5-5.7-5.9-8-10.7-9.3-11.6-3.2-27.1.6-37.6,7-14.1,9.7-24.8,24.8-31.5,40.5-2.6,6.1-4,12.5-6.2,18.7-6,17.1-15.6,34.3-25.3,49.6-24.1,38-66.1,88.5-115.6,87.2-19.2-.5-36.4-7.4-41.5-27.3s-1.3-27.1,2.1-40c-4.2,0-8.5.2-12.7.6-25.4,2.2-52.6,10.5-75.4,21.9-12.9,6.5-25.1,14.3-36.6,22.9V41.8h505.5s.4.4.4.4v284.4h0s0,0,0,0Z"/>
  <path class="st4" d="M321.9,78.8c1.9-.7,4.5-.4,6.3.6,2.7.2,5.5.4,8.2.3l-6,4.1c-.4,1-2.5,2.5-3.6,2.2-13.9,9.1-30.4,20.4-31,39-.3,10.1,8.6,15.1,14.4,21.7,9.6,11,15.9,25.6,14.6,40.3-1,12.2-4.4,25.9-8.5,37.5-8.2,23.2-22.2,42.3-36.5,62.1-6.1,8.4-12.3,16.7-18.8,24.8l5.1-15.4c5.7-19.3,9.5-43.9,2.3-63.2-2.1-5.6-5.1-8.8-9.8-12.5-13.8-10.8-30-10.5-45.1-2.6-6.9,3.6-14.3,11.3-19.6,17.1-13.2,14.3-25.9,32.2-33.7,50.1-.5,1.1-2.7,7.7-3.1,7.8-4.5-1.2-9-2.7-13.5-3.7-12.2-2.8-25.2-4.4-37.7-4.8s-29.2.8-43.3,2.8c-4.2.6-8.3,1.4-12.5,1.9l3.4-2.5c26.2-21.2,56-40.4,80.2-63.9,18.6-18.2,57.5-66.5,9-74.9-2-.3-3.8-.8-6-.8-5.4-.3-14.3-.4-19.5.3s-.3.5-.8.6c-2.2.3-5.1,0-7.4.3-14.3,1.2-29.6,2.7-42.9,7.9s-3.5,1.3-5.3,1.9c3-3.6,6.9-6.3,10.4-9.4,22.6-19.5,46.8-37,74-49.8,20.3-9.6,43.6-17.2,66.5-12.2s6.1,1.3,8.9,3.4c9.6,7.2,16.9,15.2,30.4,14.2,11.4-.8,12.5-7.7,18.1-15.3,9.6-13,18.1-15.3,33.9-12.5,6.8,1.2,11.5,2.3,18.6,2.9v-.2h0Z"/>
  <path class="st2" d="M357.2,123.6h-1.5c-2.9-.3-7.3-2.8-9.2-5-3-3.6-3-7.5-2.7-11.9,4.6-.3,9.6,2.4,11.6,6.6.4.9,1.8,5,1.8,5.8v4.5h0Z"/>
  <path class="st2" d="M342.9,82.9c2.4-.3,5.8.3,7.9,1.6s1.7,1.2,1.3,2-2.9,3.8-3.6,4.4c-3.2,2.9-6.8,2.3-10.6,1s-3.7-1.3-3.3-2.5c.9-2.8,5.4-6.1,8.3-6.5h0s0,0,0,0h0Z"/>
  <path class="st2" d="M329.3,92.4c1.6,5.8,2,12.4-1.5,17.5-3.5,5.1-2.9,3.8-3.7,3.3s-.8-2.1-1-2.5c-1.6-5.1-1.4-10.3,1.7-14.7s3.8-4.2,4.5-3.6h0Z"/>
  <path class="st2" d="M328.2,79.3c-2.1-.1-4.3-.4-6.3-.6.8,0,.6-.2.3-.7-1.6-3.3-6.3-10.8-6.3-14.2s2.8-4.5,4.9-2.7,2.4,6.4,3.1,8.1c1.3,3.4,2.8,6.8,4.3,10h0s0,0,0,0h0Z"/>
  <path class="st2" d="M335.5,104.2c.8-.2,2.1,3.9,2.3,4.6,1.6,6,0,11.3-4.2,15.6-3.4-4.1-3.9-9.9-1.7-14.8s3.2-5.4,3.6-5.5h0s0,0,0,0h0Z"/>
  <path class="st2" d="M347.9,94.4c3.9-.6,7.4,1.3,9.4,4.7-3.3,3.7-5.8,5.5-10.8,3.1s-4.7-3.1-4.6-4.2,4.7-3.4,6-3.6h0s0,0,0,0Z"/>
  <path class="st2" d="M330.4,83.7l12.6,21.3c-.5,0-1,0-1.5,0-3.5-.6-9.8-11-11.8-14.2s-1.8-3.3-2.9-4.9c1.1-.8,2.3-1.7,3.6-2.2h0Z"/>
  <path class="st3" d="M290,87.3c7-1.2,9.2,7.7,2.5,9.1s-9.5-7.9-2.5-9.1Z"/>
  <path class="st0" d="M617.4,130.3h56.8c-3.1,8.9-4.6,16-4.6,21.2v7.7l-.8,51.5-.4.4c-4.9-10.3-13.9-18.2-27.1-23.7-6-2.5-12.4-3.8-19.1-3.8h-5.1c-6.7,0-11,2.1-13.1,6.3h-.4c6.8-13,10.2-22.2,10.2-27.6l4.6-13.9v-.4l-7.1-1.3,6.3-16.6h0s0,0,0,0ZM615.3,167.6l.4.4h.4c2.2-1.4,5.5-2.1,10.1-2.1,16.3,0,29.3,10.4,39,31.2-1.8-31.4-4.7-47.2-8.8-47.2l-3.4-.9h-21.2c-3.4,0-8.1,2.7-13.9,8-1.7,3.5-2.6,7-2.6,10.5h0Z"/>
  <path class="st0" d="M691,98.9c-3.8,4-7.5,7.6-11,10.9-5,4.4-12,6.3-21.1,5.8-9.6,1-14.6,4.5-14.9,10.5l-.2,2.4c-6.5-6.2-10.8-9.6-12.8-10.2-3.7-2.5-9.7-4.1-18-4.8-4.6-.7-7.6-.6-9,.3l8.8-18.8,7.1,1.6c4.6,1.9,8.2,4.6,10.9,8.2,2.5,2.4,6.5,8.7,12.2,19-.2-2,.4-4.3,1.7-6.8,4.1-9.4,9.1-15.3,15-17.9,3.4-1.5,11.4-1.7,23.8-.5,2.8.6,6.5-.3,11-2.6-1.2,1.5-2.4,2.4-3.6,2.7h0q0,0,0,0h0Z"/>
  <path class="st0" d="M688.2,130.6h54.8c0,0-4.6,17.4-4.6,17.4h-26.5c-12.3-.1-20.4,4.9-24.2,15.1l-2.3,7.5c5.6-2.5,11.2-4.1,16.8-4.7,19.2-1,31.1,7.2,35.7,24.4l16.1,102.3h-2.4l-10.6-59c-3.1-16.4-6.5-27.7-10.5-33.8-9.9-12.4-21.9-18.6-36.2-18.6-5.9-.5-11.6,1.4-17,5.7,4.7-12.1,7.1-19.3,7.1-21.5s2.1-8.3,6.3-17.7h-6.8l4.5-17h0Z"/>
  <path class="st0" d="M760.9,147.7h-12.2l4.3-16.7h12.4l-4.5,16.7h0Z"/>
  <path class="st0" d="M830.3,226c-6.5,6.6-12.7,10-18.9,10-16.3,0-27-6.7-31.8-20.1-1.2-2.4-5.6-10-13.3-22.9l4.4-1.8c2.2,0,9.4,3.3,21.6,10,6,1.6,10.7,2.4,13.9,2.4h5.1c7.8,0,13.4-4.8,16.9-14.5-1.2-26.9-3.9-40.7-8.2-41.4h-8.5l.7,41.8h-2.1c-4.6-26.3-7.9-39.5-10.1-39.5,0-1.4-2.3-2.4-7-2.9h-2.6c-1.2,16.8-5.6,26.3-13.3,28.4l-9.7,4.9c1.3-11,5.1-18.8,11.5-23.2,4.7-3.1,7.3-6.5,8-10.1h-12.7l5.4-16.8h58c-2.9,15.5-3.9,27.8-2.9,36.8l-1.6,17.8c-.5,9.3-5.2,16.1-14,20.5l-7.6,1.2h-4.5c-8.4,0-19.2-3.9-32.3-11.8l-2.7-.2c9.2,15.4,21,23.7,35.4,24.6,19.5,0,31.2-9.9,35.1-29.7h1.8c-1.7,14.6-6.3,26.8-13.8,36.6h0,0Z"/>
  <path class="st0" d="M785.5,102.3c-4.5-.6-6.9.1-7.1,2,2.5,4,5,6.1,7.5,6.4,1.7.1,3.6,0,5.7-.2-3.9,9.3-7,14.3-9.2,15.2h-2.1c0,0-3.5-.3-3.5-.3-3.2-1.3-5.9-3.6-8-7.1-.8-1.6-1.2-2.8-1-3.8,1.4-11.2,7.2-19.7,17.4-25.4,1.9-.4,4-.6,6.2-.4,6.4.6,11.8,3.6,16.3,8.9,10.5,12.7,19.7,23,27.6,30.9l-1.3.6c-20.3-16.5-36.3-25.5-48.3-26.8h0Z"/>
  <path class="st0" d="M855.3,147.7h-12.2l4.3-16.7h12.4l-4.5,16.7h0Z"/>
  <path class="st0" d="M924.2,130.4v.4l-6.8,14.2c2.8,2.8,4.2,6,4.2,9.7s-2.7,9.1-8.1,16.3c10.4,8.7,16.8,20.7,19.2,35.9l3.5,10.1h-1c-2.7-6.9-7.2-14.2-13.6-21.6-7.3-7.4-15.8-11.1-25.4-11.1s-8.5.9-11.4,2.8c3.5-9.5,6.8-15.5,9.8-17.9h8.5l8.1,1.6c1.7-3.8,2.5-7.7,2.5-11.8-2.9-7.4-6.6-11.3-11-11.8l-10.2.3c-9.7.5-14.9,3.5-15.6,9.1-1.5,4.7-1.7,9.5-.7,14.3,3.9,8.2,3.2,18.4-2.2,30.3-1.7-5.9-3.9-11.6-6.7-17-2.8-5.4-3.5-10.2-2-14.5,1.1-9,4.9-16.7,11.5-23.3l8.9-16.1h38.6s0,0,0,0Z"/>
  <path class="st0" d="M997,214.7h-.8c-1-24.3-2.3-39.4-3.8-45.4-1.1-14.3-3.9-21.5-8.4-21.5h-6.6l.4,13.8,2.5,38.1c-9.4-14.3-22.8-21.5-40.4-21.5s-5.2,1.3-7.2,3.8c4.2-11.8,7.6-23.3,10.2-34.5h-7.2c0-.1,7.2-16.9,7.2-16.9h63.6c-3.1,5.7-5.1,29.7-6,72h.4l-.7,39.1c-3.1-3.9-10.5-8.3-22.2-13-11.7-4.7-23.9-6.3-36.5-4.6-2.7,0-5.4.8-8.2,2.4l10.8-20c16-1.5,33.6,6.3,52.8,23.2v-15h.1ZM941.8,162.1l5.4-1.1c12.8,0,22.1,5.9,27.7,17.7-2.4-20.3-6.4-30.4-12.1-30.4l-5.4-.5c-6.8,0-11.9,4.8-15.6,14.3h0Z"/>
  <path class="st0" d="M1023.5,98.9c-3.8,4-7.5,7.6-11,10.9-5,4.4-12,6.3-21.1,5.8-9.6,1-14.6,4.5-14.9,10.5l-.2,2.4c-6.5-6.2-10.8-9.6-12.8-10.2-3.7-2.5-9.7-4.1-18-4.8-4.6-.7-7.6-.6-9,.3l8.8-18.8,7.1,1.6c4.6,1.9,8.2,4.6,10.9,8.2,2.5,2.4,6.5,8.7,12.2,19-.2-2,.4-4.3,1.7-6.8,4.1-9.4,9.1-15.3,15-17.9,3.4-1.5,11.4-1.7,23.8-.5,2.8.6,6.5-.3,11-2.6-1.2,1.5-2.4,2.4-3.6,2.7h0c0,0,0,0,0,0h0Z"/>
  <path class="st0" d="M1024.3,147.7h-12.2l4.3-16.7h12.4l-4.5,16.7h0Z"/>
  <path class="st0" d="M1042.6,130.3h56.8c-3.1,8.9-4.6,16-4.6,21.2v7.7l-.8,51.5-.4.4c-4.9-10.3-13.9-18.2-27.1-23.7-6-2.5-12.4-3.8-19.1-3.8h-5.1c-6.7,0-11,2.1-13.1,6.3h-.4c6.8-13,10.2-22.2,10.2-27.6l4.6-13.9v-.4l-7.1-1.3,6.3-16.6h0ZM1040.5,167.6l.4.4h.4c2.2-1.4,5.5-2.1,10.1-2.1,16.3,0,29.3,10.4,39,31.2-1.8-31.4-4.7-47.2-8.8-47.2l-3.4-.9h-21.2c-3.4,0-8.1,2.7-13.9,8-1.7,3.5-2.6,7-2.6,10.5h0q0,0,0,0Z"/>
  <path class="st0" d="M1116.9,147.7h-12.2l4.3-16.7h12.4l-4.5,16.7h0Z"/>
  <path class="st0" d="M1136.7,130.6h37.9l-6.6,17h-8.7c0,8.8,1.5,13.7,4.1,14.8,4.1,2.9,7.9,8.1,11.5,15.7l13.2,26.2c-1.4-22.3-3.1-38.9-5.2-49.8-.8-3-2.7-5.3-5.4-6.8l6.2-17.7h12.7c-3.8,11.2-5.7,19.8-5.7,25.7v17.8l-.4,40.5c-7.1-12.7-14.5-23.1-22.2-31.2-3.8,13-10,19.4-18.5,19.4s-18.3-5.2-22.6-15.6l-.4-5.1c0-8.5,4.6-15.7,13.8-21.5,3.1-.8,6-1.3,8.8-1.3l7.6.8c-2.8-7.9-7.3-11.9-13.8-11.9l-11.3-.2,4.9-16.8h0c0,0,0,0,0,0h0ZM1137.3,175.1c0,3.9,4.3,7.4,12.8,10.5l7.1.4c4.4,0,7.5-1.4,9.3-4.3-3.8-5.3-13-8-27.5-8l-1.8,1.3h0Z"/>
  <path class="st0" d="M1142.5,102.3c-4.5-.6-6.9.1-7.1,2,2.5,4,5,6.1,7.5,6.4,1.7.1,3.6,0,5.7-.2-3.9,9.3-7,14.3-9.2,15.2h-2.1c0,0-3.5-.3-3.5-.3-3.2-1.3-5.9-3.6-8-7.1-.8-1.6-1.2-2.8-1-3.8,1.4-11.2,7.2-19.7,17.4-25.4,1.9-.4,4-.6,6.2-.4,6.4.6,11.8,3.6,16.3,8.9,10.5,12.7,19.7,23,27.6,30.9l-1.3.6c-20.3-16.5-36.3-25.5-48.3-26.8h0,0Z"/>
  <path class="st0" d="M1260.4,130.4v.4l-6.8,14.2c2.8,2.8,4.2,6,4.2,9.7s-2.7,9.1-8.1,16.3c10.4,8.7,16.8,20.7,19.2,35.9l3.5,10.1h-1c-2.7-6.9-7.2-14.2-13.5-21.6-7.3-7.4-15.8-11.1-25.4-11.1s-8.5.9-11.4,2.8c3.5-9.5,6.8-15.5,9.8-17.9h8.5l8.1,1.6c1.7-3.8,2.5-7.7,2.5-11.8-2.9-7.4-6.6-11.3-11-11.8l-10.2.3c-9.7.5-14.9,3.5-15.6,9.1-1.5,4.7-1.7,9.5-.7,14.3,3.9,8.2,3.2,18.4-2.2,30.3-1.7-5.9-3.9-11.6-6.7-17-2.8-5.4-3.5-10.2-2-14.5,1.1-9,4.9-16.7,11.5-23.3l8.9-16.1h38.6,0s0,0,0,0Z"/>
  <path class="st0" d="M1211.8,102.3c-4.5-.6-6.9.1-7.1,2,2.5,4,5,6.1,7.5,6.4,1.7.1,3.6,0,5.7-.2-3.9,9.3-7,14.3-9.2,15.2h-2.1c0,0-3.5-.3-3.5-.3-3.2-1.3-5.9-3.6-8-7.1-.8-1.6-1.2-2.8-1-3.8,1.4-11.2,7.2-19.7,17.4-25.4,1.9-.4,4-.6,6.2-.4,6.4.6,11.8,3.6,16.3,8.9,10.5,12.7,19.7,23,27.6,30.9l-1.3.6c-20.3-16.5-36.3-25.5-48.3-26.8h0,0Z"/>
  <path class="st0" d="M1281.5,147.7h-12.2l4.3-16.7h12.4l-4.5,16.7h0Z"/>
  <path class="st0" d="M1357.5,131.2c-3.1,3.7-4.5,11.8-4.1,24.1l-.4,42.4-.6,17c-10.6-11.9-26.8-17.6-48.4-17.1-7.1.1-11.6,1.4-13.7,3.8l-2.7,2.4c1.4-5.3,4.4-12,8.9-20.1,0-2.2,2.3-5.8,6.9-11v-.4c-5.4-3-8.6-5.5-9.6-7.4s-1.5-3.6-1.6-5.2c0-4,5.2-13.6,16-29l49.3.5h0ZM1332.5,170.9c-3.8,2.1-8.2,3.2-12.9,3.3l-5.9.5c-5.9.6-11,4.3-15.4,11.2,2.3-1.2,6.6-1.8,13-2,13.7-.3,25.8,5.5,36.5,17.4l-2.6-42.8c-2.8,5.7-7,9.9-12.7,12.5h0ZM1303.5,150.2c-.3,4.1,4.2,7.5,13.6,10.1l9.4.5c7-.1,12.9-2.4,17.8-6.6-1-4-5.6-6.1-13.8-6.4h-24.8c0-.1-2.1,2.5-2.1,2.5h0Z"/>
  <path class="st0" d="M1373.8,98.9c-3.8,4-7.5,7.6-11,10.9-5,4.4-12,6.3-21.1,5.8-9.6,1-14.6,4.5-14.9,10.5l-.2,2.4c-6.5-6.2-10.8-9.6-12.8-10.2-3.7-2.5-9.7-4.1-18-4.8-4.6-.7-7.6-.6-9,.3l8.8-18.8,7.1,1.6c4.6,1.9,8.2,4.6,10.9,8.2,2.5,2.4,6.5,8.7,12.2,19-.2-2,.4-4.3,1.7-6.8,4.1-9.4,9.1-15.3,15-17.9,3.4-1.5,11.4-1.7,23.8-.5,2.8.6,6.5-.3,11-2.6-1.2,1.5-2.4,2.4-3.6,2.7h0c0,0,0,0,0,0h0Z"/>
  <path class="st0" d="M1372,130.3h56.8c-3.1,8.9-4.6,16-4.6,21.2v7.7l-.8,51.5-.4.4c-4.9-10.3-13.9-18.2-27.1-23.7-6-2.5-12.4-3.8-19.1-3.8h-5.1c-6.7,0-11,2.1-13.1,6.3h-.4c6.8-13,10.2-22.2,10.2-27.6l4.6-13.9v-.4l-7.1-1.3,6.3-16.6h0ZM1369.9,167.6l.4.4h.4c2.2-1.4,5.5-2.1,10.1-2.1,16.3,0,29.3,10.4,39,31.2-1.8-31.4-4.7-47.2-8.8-47.2l-3.4-.9h-21.2c-3.4,0-8.1,2.7-13.9,8-1.7,3.5-2.6,7-2.6,10.5h0q0,0,0,0Z"/>
  <path class="st0" d="M1446.2,147.7h-12.2l4.3-16.7h12.4l-4.5,16.7h0Z"/>
  <path class="st0" d="M1522.3,131.2c-3.1,3.7-4.5,11.8-4.1,24.1l-.4,42.4-.6,17c-10.6-11.9-26.8-17.6-48.4-17.1-7.1.1-11.6,1.4-13.7,3.8l-2.7,2.4c1.4-5.3,4.4-12,8.9-20.1,0-2.2,2.3-5.8,6.9-11v-.4c-5.4-3-8.6-5.5-9.6-7.4s-1.5-3.6-1.6-5.2c0-4,5.2-13.6,16-29l49.3.5h0ZM1497.2,170.9c-3.8,2.1-8.2,3.2-12.9,3.3l-5.9.5c-5.9.6-11,4.3-15.4,11.2,2.3-1.2,6.6-1.8,13-2,13.7-.3,25.8,5.5,36.5,17.4l-2.6-42.8c-2.8,5.7-7,9.9-12.7,12.5h0ZM1468.2,150.2c-.3,4.1,4.2,7.5,13.6,10.1l9.4.5c7-.1,12.9-2.4,17.8-6.6-1-4-5.6-6.1-13.8-6.4h-24.8c0-.1-2.1,2.5-2.1,2.5h0Z"/>
  <path class="st0" d="M1563.1,186c-6.9-2-13.2-3-18.9-3h-6.3c-6.3,0-10.3,2.2-12.1,6.7-1.1-4.4,1.4-12.2,7.5-23.3.8-5.6,2.4-12,4.6-19.2l-7.1-.4,7.4-16.3h51.8l-5.4,17.1h-32.4c-5.9,0-11.3,4.6-15.9,13.8l-.9,5,10.5-1.7c20,0,34.1,7.6,42.4,22.9l16.6,26.5-1.5.6c-9.6-13.9-23.1-23.5-40.3-28.7h0s0,0,0,0h0Z"/>
  <path class="st0" d="M1608.4,147.7h-12.2l4.3-16.7h12.4l-4.5,16.7h0Z"/>
  <path class="st0" d="M1625.7,130.6h54.8c0,0-4.6,17.4-4.6,17.4h-26.5c-12.3-.1-20.4,4.9-24.2,15.1l-2.3,7.5c5.6-2.5,11.2-4.1,16.8-4.7,19.2-1,31.1,7.2,35.7,24.4l16.1,102.3h-2.4l-10.6-59c-3.1-16.4-6.5-27.7-10.5-33.8-9.9-12.4-21.9-18.6-36.2-18.6-5.9-.5-11.6,1.4-17,5.7,4.7-12.1,7.1-19.3,7.1-21.5s2.1-8.3,6.3-17.7h-6.8l4.5-17h0s0,0,0,0Z"/>
  <path class="st0" d="M1722.3,186c-6.9-2-13.2-3-18.9-3h-6.3c-6.3,0-10.3,2.2-12.1,6.7-1.1-4.4,1.4-12.2,7.5-23.3.8-5.6,2.4-12,4.6-19.2l-7.1-.4,7.4-16.3h51.8l-5.4,17.1h-32.4c-5.9,0-11.3,4.6-15.9,13.8l-.9,5,10.5-1.7c20,0,34.1,7.6,42.4,22.9l16.6,26.5-1.5.6c-9.6-13.9-23.1-23.5-40.3-28.7h0s0,0,0,0h0Z"/>
  <path class="st0" d="M1767.6,147.7h-12.2l4.3-16.7h12.4l-4.5,16.7h0Z"/>
  <path class="st0" d="M1787.4,130.6h37.9l-6.6,17h-8.7c0,8.8,1.5,13.7,4.1,14.8,4.1,2.9,7.9,8.1,11.5,15.7l13.2,26.2c-1.4-22.3-3.1-38.9-5.2-49.8-.8-3-2.7-5.3-5.5-6.8l6.2-17.7h12.7c-3.8,11.2-5.7,19.8-5.7,25.7v17.8l-.4,40.5c-7.1-12.7-14.5-23.1-22.2-31.2-3.8,13-10,19.4-18.5,19.4s-18.3-5.2-22.6-15.6l-.4-5.1c0-8.5,4.6-15.7,13.8-21.5,3.1-.8,6-1.3,8.8-1.3l7.6.8c-2.8-7.9-7.3-11.9-13.8-11.9l-11.3-.2,4.9-16.8h0c0,0,0,0,0,0ZM1788,175.1c0,3.9,4.3,7.4,12.8,10.5l7.1.4c4.4,0,7.5-1.4,9.3-4.3-3.8-5.3-13-8-27.5-8l-1.8,1.3h0Z"/>
  <path class="st0" d="M1886.9,186c-6.9-2-13.2-3-18.9-3h-6.3c-6.3,0-10.3,2.2-12.1,6.7-1.1-4.4,1.4-12.2,7.5-23.3.8-5.6,2.4-12,4.6-19.2l-7.1-.4,7.4-16.3h51.8l-5.4,17.1h-32.4c-5.9,0-11.3,4.6-15.9,13.8l-.9,5,10.5-1.7c20,0,34.1,7.6,42.4,22.9l16.6,26.5-1.5.6c-9.6-13.9-23.1-23.5-40.3-28.7h0s0,0,0,0h0Z"/>
  <path class="st0" d="M1932.1,147.7h-12.2l4.3-16.7h12.4l-4.5,16.7h0Z"/>
  <path class="st0" d="M2013.5,130.6c-3.5,6.3-5.6,35.3-6.3,86.8v74.7h-2.5c-.7-70.9-2.5-111.8-5.4-122.8-1.1-14.3-3.9-21.5-8.4-21.5h-6.6l.4,13.8,2.5,38.1c-9.4-14.3-22.8-21.5-40.4-21.5s-5.2,1.3-7.2,3.8c4.2-11.8,7.6-23.3,10.2-34.5h-7.2c0-.1,7.2-16.9,7.2-16.9h63.7s0,0,0,0ZM1948.7,162.1l5.4-1.1c12.8,0,22.1,5.9,27.7,17.7-2.4-20.3-6.4-30.4-12.1-30.4l-5.4-.5c-6.8,0-11.9,4.8-15.6,14.3h0Z"/>
  <path class="st0" d="M2084.3,130.4l-6.6,16.3h-20c0,3.7,5.3,8,15.9,12.8,6.5,3.1,10.2,7.7,11.1,13.8-.9,8.9-3.5,15.2-7.6,18.7-7,8.6-14.3,13-21.8,13s-12.7-4.1-20.2-12.4c-5.7-7.4-11.7-13.6-17.9-18.6l10.2-13.2c2.9,2.5,5.6,3.7,8.1,3.7,11.7-1.8,18-5.2,19-10.4.7-1.9.8-4.2,0-7.1l-26.2.2,5.8-16.3,50.1-.3h0ZM2039.9,173.4c11,13.8,18.8,20.2,23.5,19.3,8-.8,12-2.8,12-6.2,0-6.1-5.2-11.2-15.5-15.4l-5.7-5.2c-2.5,5.1-7.3,7.6-14.2,7.6h0,0ZM2072,124.5c0-3.7,3-8.6,9-14.9h1.5c4.7,3.7,8.3,5.5,11,5.5l4.1-2.5v.4c-7,9.7-13,14.5-18,14.5l-6-3.5v.4c.1,3,.6,6,1.2,8.8h-1.3c-.9-2.8-1.4-5.6-1.4-8.8h0c0,.1,0,.1,0,.1Z"/>
  <path class="st0" d="M2093.4,96.7c-3.1,3.9-6,6.9-8.8,9.2-4,3.3-10,5.5-18,6.6-8.3,2.5-12.4,6.5-12.2,12v2.2c-6.2-5.2-10.1-8.1-11.9-8.5-3.4-2-7.4-3-12.2-2.9-4-.4-6.6,0-7.8.9l6.5-17.8,2.4.7c4.6,1.4,7.9,3.7,9.9,6.9,2.4,1.9,6.3,7.5,11.9,16.6-.3-1.9,0-4,1-6.3,2.9-8.8,6.8-14.6,11.9-17.3,2.9-1.6,9.8-2.2,20.6-2,2.5.4,5.6-.6,9.5-3-.9,1.4-2,2.3-3,2.7h0Z"/>
  <path class="st0" d="M2103.4,147.7h-12.2l4.3-16.7h12.4l-4.5,16.7h0Z"/>
  <path class="st0" d="M2172.4,130.4v.4l-6.8,14.2c2.8,2.8,4.2,6,4.2,9.7s-2.7,9.1-8.1,16.3c10.4,8.7,16.8,20.7,19.2,35.9l3.5,10.1h-1c-2.7-6.9-7.2-14.2-13.6-21.6-7.3-7.4-15.8-11.1-25.4-11.1s-8.5.9-11.4,2.8c3.5-9.5,6.8-15.5,9.8-17.9h8.5l8.1,1.6c1.7-3.8,2.5-7.7,2.5-11.8-2.9-7.4-6.6-11.3-11-11.8l-10.2.3c-9.7.5-14.9,3.5-15.6,9.1-1.5,4.7-1.7,9.5-.7,14.3,3.9,8.2,3.2,18.4-2.2,30.3-1.7-5.9-3.9-11.6-6.7-17-2.8-5.4-3.5-10.2-2-14.5,1.1-9,4.9-16.7,11.5-23.3l8.9-16.1h38.6Z"/>
  <path class="st0" d="M2250.9,130.2c-4.9,13.4-7,31.9-6.6,55.5l.3,25.9-5.8-9.4c-11.1-14.7-25.1-22.1-42-22.1s-14.1,1.9-16.3,5.6c4.6-11.6,6.9-19.8,6.9-24.4l4.5-13.2h-8.7l6.6-17.7h36.5l-6.9,17.7h-13.7c-10.5,1.9-15.8,6.7-15.8,14.6l.4,2.1c1.4-1.1,5.2-1.7,11.5-1.7s9.5,1.2,17.1,3.5l14.1-16.3-2.5-2.2,5.9-17.9h14.3c0,0,0,0,0,0h0ZM2221.4,168.6c7.2,6.3,12.1,11.6,14.5,15.9,2.4,4.3,3.9,7.4,4.5,9.2,0-9.5-1.7-23.4-5.1-41.7l-13.8,16.6h0s0,0,0,0h0Z"/>
  <path class="st0" d="M2190.8,111.3c-5.2-.9-9.9-.8-14.2.4l18.7-18.9c9.9,3.5,27.1,15.5,51.8,36l-.6.3c-16.5-8.2-35.1-14.2-55.7-17.8h0Z"/>
  <path class="st0" d="M2328.9,130.8c-3.7,10.3-5.4,22.3-4.9,35.7l1.3,43.9c-10.1-17.1-23.6-25.6-40.5-25.6s-8.7,1.6-11.8,4.8c4.9-13.5,9.1-20.3,12.8-20.3l7.8-.4,1-8.2c-2.7-10.6-9.7-15.2-20.9-13.8-7.9,2.4-11,8.8-9.4,19.3l4.3,10.4c1.8,4.7-1.4,11.7-9.7,20.8,0-3-1.7-10.6-5.2-22.6,0-13.6,4.2-23.3,12.3-29.1l7.6-14.6h29.9l-4.6,13c2.4,3.4,3.1,7.1,2.1,11,0,2.2-1.7,6.9-5.1,14.2,4.5,0,10.6,4.6,18.1,13.5l7.4,10.6c-1.8-28.1-5-43.6-9.5-46.5l4.7-16.3,12.2.3h0s0,0,0,0Z"/>
  <path class="st0" d="M2345.9,147.7h-12.2l4.3-16.7h12.4l-4.5,16.7h0Z"/>
  <path class="st0" d="M2389.8,157.8c-2.7-6.6-5.7-9.9-9-9.7h-19.4c0,0,5.3-17.6,5.3-17.6h50.6c0,0-5.8,17.1-5.8,17.1h-17.4l1.3,10.2h22.8l-1,17.1-.8,28.2c-.9,11.7-5.5,19.3-13.6,22.6-4.5,1.2-9.6,1.7-15.2,1.4-8.4.1-18.8-3.5-31.2-10.9,4.5,12,17.2,18.9,38.1,20.6,12.7-.3,22.5-8.2,29.6-23.4l1.3.9c-3.3,13.4-8,23.3-14.2,29.8-5.5,5-13.1,7.2-22.8,6.8-16.3-.6-28.3-11.6-35.9-32.7l-4.1-5.1c0-1,1-1.6,2.8-1.6,1.8,0,9.9,3,24.3,9.4,4.4,1.4,8,2.2,10.8,2.4,15.5.7,23.5-5.5,23.9-18.6l-3-31.4-13.2.2.6,6.3,2.1,34.8c-10.8-10.5-21.7-16-32.8-16.4-4.7-.6-8.4.5-11.2,3.5v-.5l11-29-6.4.4,3.9-14.6h28.5c0,0,.1,0,.1,0,0,0,0,0,0,0h0ZM2364,183.1c12.2.5,21.4,6.5,27.3,17.9-.6-18.1-3.3-27.3-8-27.5h-6.6c-8.2.8-12.5,4-12.7,9.6h0Z"/>
  <path class="st0" d="M2495.3,130.6l-4.6,17.7-.4,29.1,1.2,34.1c-7-13.7-18.5-29.6-34.5-47.6-6.6-6.2-11.9-9.7-15.8-10.3-2.8,0-5.2,3.8-7.1,11.3h2.7c11,0,22.4,12.1,34.3,36.3-7.5-7.2-11.6-10.8-12.2-10.8-9.1-5.4-18-8.1-26.7-8.1s-6.6,1.2-8.9,3.6c6.9-16.7,10.4-26.9,10.4-30.6l1.8-7.9h-5.3l5.7-16.6h36.9l-4.8,17.5h-4.9c6.9,12.8,15.2,29.2,24.9,49-2.8-32.8-6.6-49.3-11.3-49.3l5.4-17.4h13.1c0,0,.1,0,.1,0h0Z"/>
  <path class="st0" d="M2513.3,147.7h-12.2l4.3-16.7h12.4l-4.5,16.7h0Z"/>
  <path class="st0" d="M2587.4,185.9h3.8l-5.2,14.8h-40.5c0,.1,6,23.5,6,23.5,5-9.7,11.8-14.5,20.4-14.5,12.9,2.4,19.4,6.6,19.4,12.7,1.1,4.4-8.2,28.4-28.2,71.8l-1.5-.7c12.5-30.1,19-48.1,19.6-54.3-1.6-11.2-7.8-16.8-18.7-16.8-6.8,1.2-10.2,2.8-10.2,4.8l6.2,17.5h-1.8c-12.4-24.4-19.8-38.9-22.2-43.4l4.8-15.3h44.4c0-.1-2.4-4.1-2.4-4.1-8.2-9-19.8-13.3-34.7-12.8-3.6,1-6.5,2.6-8.8,4.8v-2.1c3.1-11.5,8-17.2,14.9-17.2h4.1c-1.5-6.5-7-9-16.3-7.5-5.6-.4-9.2,2.6-10.7,9.1l3.9,10.5c0,3-1.4,8.6-4.1,16.6-1.6-2-4.8-6.8-9.6-14.4v-2.6c.3-6.6,3.3-13.3,9.1-19.9l8.8-15.7h30.4c-4.3,8.3-6.4,13.2-6.1,14.5.3,1.4-.4,4.4-1.9,9.3,8.2.5,16.4,8.6,24.5,24.4-2.4-21.8-5.6-32.9-9.9-33.4l4.9-15.2h12.3c0,0-4.1,16-4.1,16l-.7,39.4h0c0,0,0,0,0,0Z"/>
  <path class="st0" d="M2533.5,111.3c-5.2-.9-9.9-.8-14.2.4l18.7-18.9c9.9,3.5,27.1,15.5,51.8,36l-.6.3c-16.5-8.2-35.1-14.2-55.7-17.8h0Z"/>
  <path class="st0" d="M2610.2,147.7h-12.2l4.3-16.7h12.4l-4.5,16.7h0Z"/>
  <path class="st0" d="M2691.6,130.6c-3.5,6.3-5.6,35.3-6.3,86.8v74.7h-2.5c-.7-70.9-2.5-111.8-5.4-122.8-1.1-14.3-3.9-21.5-8.4-21.5h-6.6l.4,13.8,2.5,38.1c-9.4-14.3-22.8-21.5-40.4-21.5s-5.2,1.3-7.2,3.8c4.2-11.8,7.6-23.3,10.2-34.5h-7.2c0-.1,7.2-16.9,7.2-16.9h63.7s0,0,0,0ZM2626.7,162.1l5.4-1.1c12.8,0,22.1,5.9,27.7,17.7-2.4-20.3-6.4-30.4-12.1-30.4l-5.4-.5c-6.8,0-11.9,4.8-15.6,14.3h0Z"/>
  <path class="st0" d="M2763.2,130.9l-5.2,16.8-17.6.4,1.3,11v4.8c9,6.3,14.3,20,16,41,4.3,45.9,6.9,74.8,7.7,86.9l-2.3-.2-2.2-20.2c-3.7-37.9-9.3-65.5-16.6-82.6-4.3,10.5-11.3,15.8-21.1,15.8s-22-5.8-27-17.3c0-10.9,5.5-19.4,16.6-25.4,2.8-1.3,5.7-1.9,8.6-1.9,7.5,0,13,1,16.6,2.9,0-5.6-4.5-10.4-13.5-14.3-5.1-1-13.3-1.4-24.5-1.3l6.2-16.5,57,.2h0ZM2706,174.3c4.3,10.2,12.3,15.3,23.9,15.3s9.2-1.3,11.8-3.8c-5.4-8.3-15-12.4-29-12.4l-6.8,1h0s0,0,0,0Z"/>
  <path class="st0" d="M2838.2,130.6l-4.6,17.7-.4,29.1,1.2,34.1c-7-13.7-18.5-29.6-34.5-47.6-6.6-6.2-11.9-9.7-15.8-10.3-2.8,0-5.2,3.8-7.1,11.3h2.7c11,0,22.4,12.1,34.3,36.3-7.5-7.2-11.6-10.8-12.2-10.8-9.1-5.4-18-8.1-26.7-8.1s-6.6,1.2-8.9,3.6c6.9-16.7,10.4-26.9,10.4-30.6l1.8-7.9h-5.3l5.7-16.6h36.9l-4.8,17.5h-4.9c6.9,12.8,15.2,29.2,24.9,49-2.8-32.8-6.6-49.3-11.3-49.3l5.4-17.4h13.1c0,0,.1,0,.1,0h0Z"/>
  <path class="st0" d="M2856.3,147.7h-12.2l4.3-16.7h12.4l-4.5,16.7h0Z"/>
  <path class="st0" d="M2933.9,130.9l-4.8,20.1,1.2,53.6-.4.4c-3.9-10.1-9.1-16.8-15.6-20-4.7-4-11.3-6-19.7-6s-10,2-12.4,6c1.1-7.4,3.6-14.4,7.6-20.8,0-4.4,1.4-9.7,4.1-16v-.4h-14.1l-4,5.7c-2.1,4-3.4,17.4-3.8,40.3l-1.3,52.9h-3l-2.3-90.1c10.7-15.8,17.3-24.3,19.7-25.7h49c0,0,0,0,0,0h0ZM2891.4,163v.4c1.1-.7,4.6-1.4,10.4-2,9.7.5,17.5,6.9,23.3,19.1-1.5-21.5-3.9-32.3-7.2-32.3-12.6-.3-19.9,1.7-22,6-2.9,3.7-4.4,6.6-4.4,8.8h0s0,0,0,0h0Z"/>
  <path class="st0" d="M2974.5,186c-6.9-2-13.2-3-18.9-3h-6.3c-6.3,0-10.3,2.2-12.1,6.7-1.1-4.4,1.4-12.2,7.5-23.3.8-5.6,2.4-12,4.6-19.2l-7.1-.4,7.4-16.3h51.8l-5.4,17.1h-32.4c-5.9,0-11.3,4.6-15.9,13.8l-.9,5,10.5-1.7c20,0,34.1,7.6,42.4,22.9l16.6,26.5-1.5.6c-9.6-13.9-23.1-23.5-40.3-28.7h0s0,0,0,0h0Z"/>
  <path class="st0" d="M3019.8,147.7h-12.2l4.3-16.7h12.4l-4.5,16.7h0Z"/>
  <path class="st0" d="M3046.2,130.7c-4.3,12.4-6.2,30.4-5.7,54.1v106.7c-.1,0-2.8-.2-2.8-.2-.5-57-1.3-94.8-2.4-113.4-1.1-18.6-3.5-28.7-7.3-30.1l5.6-17.1h12.7,0Z"/>
  <path class="st0" d="M630.4,324.9h-23.7v-12.2h61.9v12.2h-23.7v69.5h-14.6v-69.5h0Z"/>
  <path class="st0" d="M675.9,314.2c0-4.9,3.8-8.2,8.9-8.2s8.9,3.3,8.9,8.2-3.8,8.2-8.9,8.2-8.9-3.4-8.9-8.2ZM677.6,333.1h14.4v61.4h-14.4v-61.4h0Z"/>
  <path class="st0" d="M719,388h-.4l-1.3,6.4h-11.4v-88.3h14.4v22.9l-.4,10.2c5.1-4.5,11.5-7.7,17.8-7.7,15.4,0,24.3,12.3,24.3,31.2s-12.6,33.2-26.3,33.2-11.6-2.8-16.8-8h0s0,0,0,0h0ZM747.2,363c0-12.2-4-19.5-13.4-19.5s-8.8,2.2-13.5,6.9v28.6c4.3,3.8,8.8,5.1,12.4,5.1,8.2,0,14.5-7.2,14.5-21.1h0Z"/>
  <path class="st0" d="M769,363.8c0-19.9,13.9-32.3,28.4-32.3s25.4,12,25.4,29.2-.3,5.5-.6,7h-39.1c1.2,10.9,8.2,17.1,18.2,17.1s9.8-1.7,14.3-4.4l4.9,8.9c-5.9,3.9-13.3,6.6-21.1,6.6-17,0-30.4-11.9-30.4-32.2h0s0,0,0,0h0ZM810.4,357.9c0-9.4-4.2-15.2-12.7-15.2s-13.5,5.3-14.7,15.2h27.4Z"/>
  <path class="st0" d="M835.4,373.8v-29.2h-8.8v-10.8l9.5-.6,1.7-16.8h12v16.8h15.7v11.5h-15.7v29.2c0,7.2,2.8,10.8,8.7,10.8s4.6-.7,6.4-1.4l2.5,10.6c-3.4,1.1-7.6,2.2-12.6,2.2-14.2,0-19.4-8.9-19.4-22.2h0Z"/>
  <path class="st0" d="M871.4,378c0-13.2,11-20,36.2-22.7-.2-6.6-2.8-12.1-11.2-12.1s-11.9,2.8-17.3,6.1l-5.3-9.6c6.8-4.2,15.5-8,25.3-8,15.4,0,23,9.4,23,26.5v36.4h-11.8l-1.1-6.8h-.4c-5.5,4.7-11.8,8.3-19.1,8.3-10.8,0-18.2-7.3-18.2-18h0ZM907.7,378v-13.8c-16.7,2.1-22.3,6.4-22.3,12.7s3.7,7.8,8.9,7.8,8.8-2.5,13.4-6.6h0Z"/>
  <path class="st0" d="M935.4,333.1h11.8l1.1,8.3h.4c5.5-5.3,11.8-9.8,20.2-9.8,13.2,0,19,8.9,19,24.4v38.5h-14.4v-36.7c0-10.1-2.9-13.9-9.6-13.9s-9,2.7-14.1,7.7v42.9h-14.4v-61.5h0Z"/>
  <path class="st0" d="M1024.6,353.9c0-26.8,16.8-42.7,37.6-42.7s18.5,4.9,23.6,10.4l-7.8,9.4c-4.2-4.2-9.1-7.1-15.5-7.1-13.3,0-22.9,11.3-22.9,29.6s8.8,30,22.6,30,12.9-3.3,17.5-8.4l7.8,9.1c-6.7,7.7-15.2,11.9-25.8,11.9-20.6,0-37-15.1-37-42.1h0Z"/>
  <path class="st0" d="M1091.1,363.8c0-19.9,13.9-32.3,28.4-32.3s25.4,12,25.4,29.2-.3,5.5-.6,7h-39.1c1.2,10.9,8.2,17.1,18.2,17.1s9.8-1.7,14.3-4.4l4.9,8.9c-5.9,3.9-13.3,6.6-21.1,6.6-17,0-30.4-11.9-30.4-32.2h0,0ZM1132.5,357.9c0-9.4-4.2-15.2-12.7-15.2s-13.5,5.3-14.7,15.2h27.4Z"/>
  <path class="st0" d="M1155.3,333.1h11.8l1.1,8.3h.4c5.5-5.3,11.8-9.8,20.2-9.8,13.2,0,19,8.9,19,24.4v38.5h-14.4v-36.7c0-10.1-2.9-13.9-9.6-13.9s-9,2.7-14.1,7.7v42.9h-14.4v-61.5h0Z"/>
  <path class="st0" d="M1223,373.8v-29.2h-8.8v-10.8l9.5-.6,1.7-16.8h12v16.8h15.7v11.5h-15.7v29.2c0,7.2,2.8,10.8,8.7,10.8s4.6-.7,6.4-1.4l2.5,10.6c-3.4,1.1-7.6,2.2-12.6,2.2-14.2,0-19.4-8.9-19.4-22.2h0,0Z"/>
  <path class="st0" d="M1262,333.1h11.8l1.1,11h.4c4.4-8,10.9-12.4,17.5-12.4s5.1.4,7,1.3l-2.5,12.5c-2.2-.6-3.8-1-6.3-1-4.9,0-10.8,3.3-14.6,12.7v37.5h-14.4v-61.4h0Z"/>
  <path class="st0" d="M1300.6,363.8c0-19.9,13.9-32.3,28.4-32.3s25.4,12,25.4,29.2-.3,5.5-.6,7h-39.1c1.2,10.9,8.2,17.1,18.2,17.1s9.8-1.7,14.3-4.4l4.9,8.9c-5.9,3.9-13.3,6.6-21.1,6.6-17,0-30.4-11.9-30.4-32.2h0,0ZM1341.9,357.9c0-9.4-4.2-15.2-12.7-15.2s-13.5,5.3-14.7,15.2h27.4Z"/>
  <path class="st0" d="M1384.5,333.7l9-.6h25.7v11.5h-34.8v-10.8h0ZM1392.7,326.7c0-12.7,5.9-22.1,20.4-22.1s8.5,1.1,11.3,2.2l-2.8,10.8c-2.2-.9-4.6-1.4-6.7-1.4-5.1,0-7.8,3.2-7.8,10.4v68h-14.4v-67.8h0Z"/>
  <path class="st0" d="M1421.7,363.8c0-20.4,13.9-32.3,29.3-32.3s29.3,11.8,29.3,32.3-13.9,32.2-29.3,32.2-29.3-11.8-29.3-32.2ZM1465.5,363.8c0-12.3-5.4-20.5-14.4-20.5s-14.4,8.2-14.4,20.5,5.4,20.4,14.4,20.4,14.4-8.1,14.4-20.4Z"/>
  <path class="st0" d="M1490.7,333.1h11.8l1.1,11h.4c4.4-8,10.9-12.4,17.5-12.4s5.1.4,7,1.3l-2.5,12.5c-2.2-.6-3.8-1-6.3-1-4.9,0-10.8,3.3-14.6,12.7v37.5h-14.4v-61.4h0Z"/>
  <path class="st0" d="M1560.8,312.7h14.6v32.8h33.2v-32.8h14.6v81.8h-14.6v-36.3h-33.2v36.3h-14.6v-81.8Z"/>
  <path class="st0" d="M1637.8,371.6v-38.5h14.4v36.7c0,10.1,2.9,13.9,9.6,13.9s9-2.5,13.6-8.5v-42.1h14.4v61.4h-11.8l-1.1-9.1h-.4c-5.4,6.4-11.4,10.5-19.8,10.5-13.2,0-19-8.9-19-24.4h0c0,0,0,0,0,0h0Z"/>
  <path class="st0" d="M1703.9,333.1h11.8l1.1,8.4h.4c5.2-5.4,11.2-9.9,18.9-9.9s14.2,4.1,17,11c5.9-6.3,12-11,19.8-11,13,0,19,8.9,19,24.4v38.5h-14.4v-36.7c0-10.1-3-13.9-9.5-13.9s-8.1,2.5-12.9,7.7v42.9h-14.4v-36.7c0-10.1-3-13.9-9.5-13.9s-8.1,2.5-12.9,7.7v42.9h-14.4v-61.5h0Z"/>
  <path class="st0" d="M1801.9,378c0-13.2,11-20,36.2-22.7-.2-6.6-2.8-12.1-11.2-12.1s-11.9,2.8-17.3,6.1l-5.3-9.6c6.8-4.2,15.5-8,25.3-8,15.4,0,23,9.4,23,26.5v36.4h-11.8l-1.1-6.8h-.4c-5.5,4.7-11.8,8.3-19.1,8.3-10.8,0-18.2-7.3-18.2-18h0ZM1838.2,378v-13.8c-16.7,2.1-22.3,6.4-22.3,12.7s3.7,7.8,8.9,7.8,8.8-2.5,13.4-6.6h0Z"/>
  <path class="st0" d="M1865.9,333.1h11.8l1.1,8.3h.4c5.5-5.3,11.8-9.8,20.2-9.8,13.2,0,19,8.9,19,24.4v38.5h-14.4v-36.7c0-10.1-2.9-13.9-9.6-13.9s-9,2.7-14.1,7.7v42.9h-14.4v-61.5Z"/>
  <path class="st0" d="M1959.4,312.7h27.6c17.1,0,30.2,6,30.2,24.3s-13.2,25.6-30.2,25.6h-13.1v32h-14.6v-81.8h0ZM1985.6,350.9c11.3,0,17.4-4.7,17.4-14s-6.1-12.7-17.4-12.7h-11.6v26.6h11.6ZM1984.3,358.7l10.5-8.6,25.6,44.5h-16.3l-19.8-35.9h0Z"/>
  <path class="st0" d="M2026.9,314.2c0-4.9,3.8-8.2,8.9-8.2s8.9,3.3,8.9,8.2-3.8,8.2-8.9,8.2-8.9-3.4-8.9-8.2ZM2028.5,333.1h14.4v61.4h-14.4v-61.4h0Z"/>
  <path class="st0" d="M2052.2,405.6c0-5.2,3.2-9.7,8.9-13.1v-.5c-3.1-2-5.6-5.3-5.6-10.2s3.3-8.9,6.8-11.5v-.5c-4.2-3.1-8.1-8.9-8.1-16.2,0-14.1,11.4-22.1,24.3-22.1s6.6.6,9.1,1.5h22v10.7h-11.3c2,2.3,3.5,6.1,3.5,10.3,0,13.7-10.4,21-23.4,21s-5.6-.6-8.3-1.6c-1.9,1.6-3,3.1-3,5.9s2.5,5.5,10,5.5h11c14.7,0,22.5,4.6,22.5,15.2s-12.7,21.7-32.9,21.7-25.6-5.2-25.6-16h0ZM2096.7,402.3c0-4.7-3.8-6.1-10.9-6.1h-8.4c-3.3,0-6-.3-8.3-.8-3.3,2.5-4.8,5.2-4.8,8.1,0,5.6,6,8.8,15.7,8.8s16.7-4.7,16.7-9.9h0ZM2089.2,353.6c0-7.7-4.7-12.1-10.7-12.1s-10.7,4.4-10.7,12.1,4.8,12.4,10.7,12.4,10.7-4.6,10.7-12.4Z"/>
  <path class="st0" d="M2117.3,306.2h14.4v22.9l-.6,11.9c5.2-4.9,11.3-9.3,19.7-9.3,13.2,0,19,8.9,19,24.4v38.5h-14.4v-36.7c0-10.1-2.9-13.9-9.6-13.9s-9,2.7-14.1,7.7v42.9h-14.4v-88.4h0Z"/>
  <path class="st0" d="M2185,373.8v-29.2h-8.8v-10.8l9.5-.6,1.7-16.8h12v16.8h15.7v11.5h-15.7v29.2c0,7.2,2.8,10.8,8.7,10.8s4.6-.7,6.4-1.4l2.5,10.6c-3.4,1.1-7.6,2.2-12.6,2.2-14.2,0-19.4-8.9-19.4-22.2h0Z"/>
  <path class="st0" d="M2220.6,387.4l6.7-9.1c5.5,4.2,10.7,6.9,17,6.9s9.9-3.1,9.9-7.4-6.7-7.4-13.2-9.9c-8.1-3-17.3-7.7-17.3-17.9s8.6-18.4,22.4-18.4,15.5,3.5,20.5,7.4l-6.6,8.8c-4.3-3.1-8.7-5.3-13.5-5.3s-9.1,3-9.1,6.8,6.2,6.7,12.9,9.1c8.3,3.1,17.7,7.1,17.7,18.5s-8.4,19-23.9,19-17.3-3.6-23.3-8.6Z"/>
  <path class="st0" d="M2299.6,378c0-13.2,11-20,36.2-22.7-.2-6.6-2.8-12.1-11.2-12.1s-11.9,2.8-17.3,6.1l-5.3-9.6c6.8-4.2,15.5-8,25.3-8,15.4,0,23,9.4,23,26.5v36.4h-11.8l-1.1-6.8h-.4c-5.5,4.7-11.8,8.3-19.1,8.3-10.8,0-18.2-7.3-18.2-18h0ZM2335.8,378v-13.8c-16.7,2.1-22.3,6.4-22.3,12.7s3.7,7.8,8.9,7.8,8.8-2.5,13.4-6.6h0Z"/>
  <path class="st0" d="M2363.5,333.1h11.8l1.1,8.3h.4c5.5-5.3,11.8-9.8,20.2-9.8,13.2,0,19,8.9,19,24.4v38.5h-14.4v-36.7c0-10.1-2.9-13.9-9.6-13.9s-9,2.7-14.1,7.7v42.9h-14.4v-61.5Z"/>
  <path class="st0" d="M2426.2,363.8c0-20,12.6-32.3,26.1-32.3s11.4,2.6,16.1,6.8l-.6-9.9v-22.3h14.4v88.3h-11.8l-1.1-6.6h-.4c-4.6,4.6-10.9,8.2-17.5,8.2-15.4,0-25.3-11.9-25.3-32.2h0ZM2467.9,377.2v-28.6c-4.2-3.8-8.4-5.1-12.5-5.1-7.8,0-14.3,7.4-14.3,20.2s5.1,20.4,14,20.4,8.8-2.1,12.8-6.9h0s0,0,0,0h0Z"/>
  <path class="st0" d="M2524,312.7h21.9c25.1,0,40,13.5,40,40.5s-14.9,41.2-39.2,41.2h-22.6v-81.8h0ZM2544.9,382.7c16.5,0,26-9.4,26-29.5s-9.5-28.8-26-28.8h-6.4v58.2h6.4s0,0,0,0h0Z"/>
  <path class="st0" d="M2593.6,363.8c0-19.9,13.9-32.3,28.4-32.3s25.4,12,25.4,29.2-.3,5.5-.6,7h-39.1c1.2,10.9,8.2,17.1,18.2,17.1s9.8-1.7,14.3-4.4l4.9,8.9c-5.9,3.9-13.3,6.6-21.1,6.6-17,0-30.4-11.9-30.4-32.2h0,0ZM2635,357.9c0-9.4-4.2-15.2-12.7-15.2s-13.5,5.3-14.7,15.2h27.4Z"/>
  <path class="st0" d="M378.6,434.7c-1.6-8.6-10.9-9.1-18.2-8.7-.6,0-3.3.3-3.4.7h0v23.1h10.3c.7,0,5.1-1.8,6-2.2,4.8-2.6,6.3-7.7,5.4-12.9h0ZM378.6,434.7c-1.6-8.6-10.9-9.1-18.2-8.7-.6,0-3.3.3-3.4.7h0v23.1h10.3c.7,0,5.1-1.8,6-2.2,4.8-2.6,6.3-7.7,5.4-12.9h0ZM16.4,390v137.1l536.8-.9v-137.1l-536.8.9h0ZM135.2,426.2c-.1,1.1-.2,1.8-.2,2.2,0-.6,0-1.3,0-1.1-.3.5-1.7,1.5-1.8,1.5h-24v77.8c0,.1-1.5,1.6-1.7,1.7-.3.2-.6.1-.9.2-6.5.6-14-.5-20.6,0-.5.2-2.3-1.7-2.3-1.8v-77.8h-23.7c-.1,0-1.7-1.7-1.8-2.1v-18.3c.1-1,1.5-2.4,2.6-2.3h72.7c.6.6,1.7,1.4,1.8,2.1-.4,5.8.6,12.4,0,18.1h0ZM165,462.2c2.5,22.6,20.7,28.3,40.8,23.8,1.1-.3,4.2-1.4,4.8-1.4s1.8.9,2.5,1.1l3.6,19c-1,.5-2.2.8-3.2,1.3-15.9,7.3-44.7,4.3-58.4-7.3-23.7-20.1-22.1-62.8,1.3-82.5,14.1-11.8,41.4-15.6,58.3-8.2,0,0,0,.3.3.4.4.2,2.7,1,2.8,1.1-1.1,6.5-3,12.9-4.6,19.3-.2.3-1.6,1-2,1.1-1.2.3-5.5-1.6-7.1-1.9-25-5.9-42.1,8.6-39.2,34.2h0ZM313,506.5c-.8,1-1.2,1.7-2.5,1.9-6.4.6-13.8-.5-20.3,0-.5.2-2.3-1.7-2.3-1.8v-39.2h-31.8v39.2c0,.2-1.8,2-2.3,1.8h-20.9c-1,0-2-1.3-2.2-2.2v-97.2c-.2-1.1,1.5-2.8,2.5-2.9h20.6c.5-.2,2.3,1.7,2.3,1.8v35.8s.4.4.4.4h31.5v-36c0-.2,1.9-2,2.3-2h20.6c1,.1,2.4,1.5,2.3,2.6v97.9q0,0,0,0ZM405.9,508.3h-23.4c-.7-.5-3-7.6-3.4-8.8-1.9-6.2-2.9-12.7-4.7-18.9s-4.4-10.9-10.7-10.9h-6.7v36.8h0c0,.2-1.8,1.9-2.3,1.8l-21.3-.2c-.9-.7-1.6-1.5-1.7-2.7v-97.6c0-.5,5.9-1.1,6.8-1.2,9.8-1.2,21.4-1.6,31.3-1.1,20.4,1,35.9,10.8,34.1,33.2-.7,9-6.9,17.1-14.5,21.6,5.8,4.2,8.4,10.7,10.4,17.3,2.8,9.2,4.3,18.8,7.7,27.8l-1.5,2.9h0ZM507.6,461.4c-2.5,28.1-20,43.8-47.3,47.2-13.5,1.7-27.2.8-40.7-.8v-100c5-.9,10.1-1.6,15.2-1.9,11.7-.8,28.7-1.1,39.8,2.3h0c24.7,7.5,35.2,28.2,33,53.3h0ZM448.4,426.6c-.6,0-3.3.3-3.4.7h0v60.6c6.8.4,13.8.3,20.2-2.4,10.4-4.3,15.2-15.2,15.8-25.9,1.3-22.7-9.5-34.4-32.5-33h0ZM360.4,426c-.6,0-3.3.3-3.4.7h0v23.1h10.3c.7,0,5.1-1.8,6-2.2,4.8-2.6,6.3-7.7,5.4-12.9-1.6-8.6-10.9-9.1-18.2-8.7h0Z"/>
  <path class="st0" d="M2657.8,333.1h11.8l1.1,8.4h.4c5.2-5.4,11.2-9.9,18.9-9.9s14.2,4.1,17,11c5.9-6.3,12-11,19.8-11,13,0,19,8.9,19,24.4v38.5h-14.4v-36.7c0-10.1-3-13.9-9.5-13.9s-8.1,2.5-12.9,7.7v42.9h-14.4v-36.7c0-10.1-3-13.9-9.5-13.9s-8.1,2.5-12.9,7.7v42.9h-14.4v-61.5h0Z"/>
  <path class="st0" d="M2755.8,363.8c0-20.4,13.9-32.3,29.3-32.3s29.3,11.8,29.3,32.3-13.9,32.2-29.3,32.2-29.3-11.8-29.3-32.2ZM2799.5,363.8c0-12.3-5.4-20.5-14.4-20.5s-14.4,8.2-14.4,20.5,5.4,20.4,14.4,20.4,14.4-8.1,14.4-20.4Z"/>
  <path class="st0" d="M2820.9,363.8c0-20.4,14.5-32.3,30.9-32.3s13.5,3,18,6.9l-7,9.4c-3.3-2.8-6.4-4.5-10.2-4.5-9.9,0-16.8,8.2-16.8,20.5s6.8,20.4,16.3,20.4,9.2-2.4,12.7-5.3l5.9,9.5c-5.8,5.1-13.1,7.5-20.1,7.5-16.8,0-29.7-11.8-29.7-32.2h0Z"/>
  <path class="st0" d="M2878.3,333.1h11.8l1.1,11h.4c4.4-8,10.9-12.4,17.5-12.4s5.1.4,7,1.3l-2.5,12.5c-2.2-.6-3.8-1-6.3-1-4.9,0-10.8,3.3-14.6,12.7v37.5h-14.4v-61.4h0,0Z"/>
  <path class="st0" d="M2918.7,378c0-13.2,11-20,36.2-22.7-.2-6.6-2.8-12.1-11.2-12.1s-11.9,2.8-17.3,6.1l-5.3-9.6c6.8-4.2,15.5-8,25.3-8,15.4,0,23,9.4,23,26.5v36.4h-11.8l-1.1-6.8h-.4c-5.5,4.7-11.8,8.3-19.1,8.3-10.8,0-18.2-7.3-18.2-18h0ZM2954.9,378v-13.8c-16.7,2.1-22.3,6.4-22.3,12.7s3.7,7.8,8.9,7.8,8.8-2.5,13.4-6.6h0Z"/>
  <path class="st0" d="M2979,363.8c0-20.4,14.5-32.3,30.9-32.3s13.5,3,18,6.9l-7,9.4c-3.3-2.8-6.4-4.5-10.2-4.5-9.9,0-16.8,8.2-16.8,20.5s6.8,20.4,16.3,20.4,9.2-2.4,12.7-5.3l5.9,9.5c-5.8,5.1-13.1,7.5-20.1,7.5-16.8,0-29.7-11.8-29.7-32.2h0Z"/>
  <path class="st0" d="M3035.3,418.4l2.7-11.1c1.2.3,3,.8,4.4.8,6.5,0,10.2-4.4,12.3-10.5l1.1-3.9-24.2-60.7h14.6l10.6,30.1c1.9,5.5,3.6,11.5,5.4,17.4h.5c1.6-5.7,3.1-11.8,4.7-17.4l9.2-30.1h13.9l-22.3,64.2c-5.1,13.8-11.6,22.4-25.1,22.4s-5.8-.5-8-1.3h0Z"/>
  <path class="st1" d="M474.6,408.1h0c-11.2-3.4-28.2-3-39.8-2.3-5.1.3-10.2,1.1-15.2,1.9v100c13.5,1.6,27.2,2.5,40.7.8,27.3-3.4,44.8-19.1,47.3-47.2,2.2-25.1-8.3-45.8-33-53.3h0ZM481,459.5c-.6,10.7-5.4,21.6-15.8,25.9-6.4,2.7-13.4,2.8-20.2,2.4v-60.6h0c.1-.4,2.8-.6,3.4-.7,23.1-1.4,33.8,10.3,32.5,33h0Z"/>
  <path class="st1" d="M313.1,408.6v97.9c-.8,1-1.3,1.7-2.6,1.9-6.4.6-13.8-.5-20.3,0-.5.2-2.3-1.7-2.3-1.8v-39.2h-31.8v39.2c0,.2-1.8,2-2.3,1.8h-20.9c-1,0-2-1.3-2.2-2.2v-97.2c-.2-1.1,1.5-2.8,2.5-2.9h20.6c.5-.2,2.3,1.7,2.3,1.8v35.8s.4.4.4.4h31.5v-36c0-.2,1.9-2,2.3-2h20.6c1,.1,2.4,1.5,2.3,2.6h0Z"/>
  <path class="st1" d="M399.7,477.6c-2-6.6-4.6-13.1-10.4-17.3,7.6-4.4,13.8-12.6,14.5-21.6,1.7-22.4-13.8-32.2-34.1-33.2-9.9-.5-21.4,0-31.3,1.1-.9,0-6.7.8-6.8,1.2v97.6c0,1.2.8,2,1.7,2.7l21.3.2c.5.2,2.3-1.6,2.3-1.8h0v-36.8h6.7c6.3,0,9,4.7,10.7,10.9s2.8,12.7,4.7,18.9c.4,1.2,2.7,8.3,3.4,8.7h23.4c0,.1,1.5-2.8,1.5-2.8-3.4-9-5-18.6-7.7-27.8h0ZM373.2,447.5c-.9.5-5.3,2.2-6,2.2h-10.3v-23.1h0c.1-.4,2.8-.6,3.4-.7,7.3-.5,16.6,0,18.2,8.7,1,5.1-.6,10.3-5.4,12.9h0Z"/>
  <path class="st1" d="M213.2,485.7l3.6,19c-1,.5-2.2.8-3.2,1.3-15.9,7.3-44.7,4.3-58.4-7.3-23.7-20.1-22.1-62.8,1.3-82.5,14.1-11.8,41.4-15.6,58.3-8.2,0,0,0,.3.3.4.4.2,2.7,1,2.8,1.1-1.1,6.5-3,12.9-4.6,19.3-.2.3-1.6,1-2,1.1-1.2.3-5.5-1.6-7.1-1.9-25-5.9-42.1,8.6-39.2,34.2,2.5,22.6,20.7,28.3,40.8,23.8,1.1-.3,4.2-1.4,4.8-1.4s1.8.9,2.5,1.1h0Z"/>
  <path class="st1" d="M135.2,426.2c-.1,1.1-.2,1.8-.2,2.2,0-.6,0-1.3,0-1.1-.3.5-1.7,1.5-1.8,1.5h-24v77.8c0,.1-1.5,1.6-1.7,1.7-.3.2-.6.1-.9.2-6.5.6-14-.5-20.6,0-.5.2-2.3-1.7-2.3-1.8v-77.8h-23.7c-.1,0-1.7-1.7-1.8-2.1v-18.3c.1-1,1.5-2.4,2.6-2.3h72.7c.6.6,1.7,1.4,1.8,2.1-.4,5.8.6,12.4,0,18.1h0Z"/>
</svg>