<?xml version="1.0" encoding="UTF-8" standalone="no"?>
<!DOCTYPE svg PUBLIC "-//W3C//DTD SVG 1.1//EN" "http://www.w3.org/Graphics/SVG/1.1/DTD/svg11.dtd">
<svg width="100%" height="100%" viewBox="0 0 240 324" version="1.1" xmlns="http://www.w3.org/2000/svg" xmlns:xlink="http://www.w3.org/1999/xlink" xml:space="preserve" xmlns:serif="http://www.serif.com/" style="fill-rule:evenodd;clip-rule:evenodd;stroke-linejoin:round;stroke-miterlimit:2;">
    <g id="Introduction">
        <g id="variations" transform="matrix(1,0,0,1,-126,-110)">
            <g id="images" transform="matrix(1,0,0,1,126,110)">
                <g id="a-person-bust" serif:id="a-person/bust">
                    <g id="body-Dress" serif:id="body/Dress" transform="matrix(1,0,0,1,31.056338,135.052838)">
                        <path id="🎨-Background" d="M161.739,136.424C161.227,131.662 160.911,126.867 160.73,122.081C160.549,117.3 160.786,112.461 160.89,107.679C161.101,97.951 161.446,88.199 160.672,78.486C159.94,69.306 158.26,60.19 155.609,51.369C154.319,47.074 152.958,42.605 150.835,38.636C148.7,34.645 145.319,31.988 141.604,29.551C137.649,26.956 133.726,24.312 129.787,21.693C126.48,19.495 120.53,16.937 117.817,13.998C114.962,10.905 114.425,3.24 112.524,-0.423C110.672,-3.991 105.431,-6.318 101.396,-6.318C94.716,-6.318 89.655,-6.66 84.162,-0.478C81.422,2.606 83.602,5.724 80.73,8.684C78.089,11.406 71.335,14.202 67.932,15.782C63.855,17.673 59.675,19.343 55.435,20.83C51.11,22.348 46.676,23.479 42.326,24.911C38.157,26.284 32.713,31.942 29.476,34.935C26.467,37.719 25.721,37.407 23.433,40.789C18.412,48.209 13.386,55.715 9.388,63.75C7.397,67.752 5.469,71.962 4.746,76.406C3.975,81.147 4.74,85.728 5.989,90.318C7.262,94.989 11.302,99.437 12.618,104.096C13.224,106.243 11.142,108.586 12.1,110.609C12.578,111.62 13.181,112.52 13.867,113.4C14.395,114.079 16.455,113.928 16.722,114.759C16.991,115.597 15.501,117.338 15.479,118.206C15.447,119.448 15.398,120.69 15.357,121.932L15.116,129.275C14.958,134.101 14.799,138.927 14.641,143.752C14.589,145.327 14.514,146.866 14.892,148.361C14.755,148.235 14.626,148.097 14.508,147.943C14.161,147.49 13.427,147.874 13.721,148.403C14.211,149.286 14.917,149.907 15.746,150.353C16.709,151.774 162.573,154.947 163.291,150.794C163.693,148.463 162.96,145.969 162.667,143.654C162.362,141.242 162,138.841 161.739,136.424Z" style="fill:white;"/>
                        <path id="🖍-Ink" d="M13.569,76.415C13.926,75.392 15.558,75.835 15.199,76.864C13.352,82.158 14.662,87.918 16.659,92.971C17.06,93.985 15.425,94.421 15.03,93.42C12.929,88.105 11.629,81.974 13.569,76.415M25.956,106.651C31.166,107.384 36.38,107.836 41.625,108.202C41.86,108.219 42.063,108.183 42.238,108.107C42.082,110.51 41.955,112.915 41.856,115.32C40.425,115.28 38.966,115.375 37.548,115.337C35.695,115.287 33.844,115.194 31.996,115.052C28.417,114.781 24.845,114.35 21.306,113.754C19.983,113.532 18.304,113.397 16.797,112.957C15.373,112.541 14.106,111.852 13.44,110.554C12.874,109.455 12.771,108.109 12.771,106.894C12.771,106.057 12.914,105.207 13.001,104.364C13.109,104.288 13.206,104.197 13.284,104.096C14.856,104.592 16.487,104.941 18.084,105.279C20.685,105.833 23.323,106.281 25.956,106.651M23.017,87.109C23.046,88.724 23.493,90.192 24.362,91.552C24.951,92.472 23.487,93.319 22.903,92.405C21.88,90.804 21.361,89.006 21.327,87.109C21.308,86.019 22.998,86.022 23.017,87.109M156.566,104.732C157.271,104.771 157.981,104.795 158.688,104.833C159.313,105.367 160.177,105.64 160.966,105.471C160.993,105.539 161.018,105.616 161.04,105.704C161.18,106.247 161.249,106.83 161.33,107.384C161.41,107.929 161.471,108.479 161.514,109.029C161.535,109.305 161.668,109.931 161.499,110.172C161.347,110.39 161.011,110.371 160.778,110.398C160.153,110.466 159.519,110.498 158.89,110.55C157.7,110.654 156.511,110.757 155.323,110.861C154.159,110.962 152.881,110.931 151.742,111.237C151.548,108.952 151.371,106.668 151.206,104.381C152.97,104.641 154.814,104.634 156.566,104.732M8.653,100.942C9.363,102.314 10.018,103.662 11.376,104.487C11.554,104.592 11.752,104.649 11.955,104.664C11.803,105.317 11.708,105.985 11.623,106.602C11.437,107.961 11.397,109.367 11.737,110.707C12.069,112.011 12.618,113.175 13.696,114.01C14.197,114.399 14.744,114.695 15.318,114.929C15.221,115.202 15.164,115.473 15.194,115.771C15.056,116.462 14.966,117.166 14.866,117.84C14.649,119.336 14.431,120.834 14.26,122.339C13.918,125.332 13.649,128.325 13.423,131.328C13.197,134.323 13.035,137.322 12.899,140.323C12.83,141.858 12.768,143.392 12.711,144.928C12.654,146.507 12.399,148.122 13.096,149.587C13.658,150.77 15.557,150.702 16.14,149.587C16.88,148.168 16.662,146.484 16.681,144.928C16.7,143.464 16.725,141.997 16.757,140.532C16.821,137.533 16.914,134.536 16.987,131.537C17.059,128.61 17.148,125.685 17.207,122.758C17.237,121.225 17.239,119.693 17.247,118.161C17.252,117.311 17.287,116.405 17.224,115.519C17.752,115.644 18.285,115.749 18.811,115.857C22.827,116.681 26.885,117.282 30.969,117.654C33.021,117.84 35.078,117.971 37.136,118.045C38.649,118.1 40.216,118.205 41.752,118.148C41.632,121.817 41.577,125.488 41.583,129.16C41.587,131.808 41.623,134.456 41.689,137.104C41.725,138.497 41.754,139.89 41.797,141.283C41.816,141.908 41.816,142.54 41.858,143.164C41.871,143.358 41.898,143.546 41.934,143.732C41.794,144.128 41.678,144.518 41.583,144.884C41.118,146.659 41.118,148.365 41.325,150.174C41.503,151.709 42.794,153.131 44.499,152.592C44.775,152.505 45.052,152.414 45.327,152.321C47.837,152.607 50.361,152.672 52.907,152.721C56.628,152.793 60.35,152.816 64.073,152.835C71.374,152.873 78.678,152.892 85.981,152.913C100.658,152.955 115.335,152.996 130.011,153.038C134.085,153.051 138.158,153.061 142.231,153.074C144.34,153.08 146.444,153.082 148.55,153.163C149.533,153.201 150.517,153.254 151.499,153.268C152.638,153.288 153.646,152.96 154.734,152.662C155.349,152.491 155.592,151.873 155.461,151.352C156.445,151.586 157.639,151.087 157.975,149.978C158.22,149.172 158.129,148.299 157.764,147.553L157.764,147.551C157.058,143.094 156.162,138.658 155.459,134.198C154.687,129.314 153.946,124.419 153.293,119.516C152.803,115.813 152.399,118.438 152.051,114.718C153.57,114.836 155.287,114.374 156.792,114.177C157.871,114.038 158.959,113.925 160.041,113.777C159.961,114.868 159.984,115.98 159.954,117.026C159.897,119.103 159.923,121.173 159.975,123.25C160.077,127.26 160.303,124.926 160.664,128.919C161.03,132.941 161.478,136.948 162.021,140.951C162.299,143.012 162.597,145.07 162.912,147.126C163.058,148.086 163.208,149.044 163.362,150.003C163.546,151.134 163.605,152.205 164.452,153.055C165.097,153.699 166.413,153.644 166.84,152.746C167.38,151.611 167.135,150.639 166.935,149.447C166.772,148.49 166.616,147.532 166.461,146.575C166.132,144.523 165.819,142.468 165.525,140.412C164.959,136.449 164.425,132.48 163.947,128.507C163.466,124.501 162.967,126.841 162.494,122.836C162.255,120.815 162.016,118.799 161.737,116.785C161.596,115.749 161.507,114.646 161.321,113.579C161.38,113.571 161.44,113.56 161.499,113.549C162.783,113.315 163.88,112.59 164.203,111.267C164.511,110.001 164.144,108.544 163.884,107.302C163.662,106.243 163.462,104.892 162.78,103.985C165.18,100.927 166.742,97.079 167.737,93.379C168.822,89.349 169.276,85.141 169.372,80.976C169.484,76.15 169.12,71.353 168.293,66.635C168.274,65.635 168.228,64.635 168.154,63.637C167.427,53.839 164.376,42.242 154.704,37.664C154.666,37.645 154.626,37.628 154.586,37.611C153.828,36.704 152.881,35.889 152.116,35.126C150.762,33.773 149.347,32.479 147.847,31.287C144.876,28.927 141.618,27.042 138.232,25.344C134.807,23.626 131.332,22.014 127.985,20.139C125.07,18.503 122.446,16.533 119.955,14.31C117.156,11.809 115.164,8.438 114.382,4.759C114.342,4.567 114.056,4.619 114.052,4.803C113.847,11.547 118.398,17.507 123.635,21.278C129.897,25.782 137.459,27.914 143.809,32.281C145.387,33.365 146.864,34.589 148.269,35.889C146.116,35.669 143.925,35.808 141.908,36.404C141.114,36.356 140.315,36.341 139.518,36.303C137.697,36.212 135.874,36.128 134.051,36.047C130.335,35.882 126.616,35.732 122.898,35.601C115.603,35.343 108.306,35.149 101.009,35.02C86.344,34.76 71.661,34.709 56.999,35.134C53.023,35.248 32.116,34.456 30.181,34.68C33.027,32.215 36.149,30.203 39.583,28.548C43.878,26.483 48.316,25.105 52.903,23.846C62.349,21.253 72.158,18.752 79.717,12.164C81.595,10.527 83.264,8.644 84.631,6.558C85.937,4.567 87.388,2.018 87.424,-0.411C87.449,-2.135 85.049,-2.763 84.196,-1.286C83.666,-0.371 83.404,0.633 82.971,1.593C82.54,2.544 82.028,3.461 81.46,4.338C80.342,6.063 78.956,7.601 77.448,8.99C74.233,11.953 70.337,14.124 66.306,15.766C57.154,19.492 47.144,21.064 38.471,25.976C34.677,28.126 31.045,31.091 28.766,34.874C28.398,34.931 28.033,34.999 27.667,35.075C27.94,34.73 28.214,34.386 28.491,34.043C28.673,33.819 28.392,33.524 28.17,33.722C23.858,37.56 19.886,41.705 16.286,46.224C12.842,50.548 9.631,55.079 7.358,60.143C3.272,69.24 2.372,79.644 4.483,89.371C5.057,92.021 5.868,94.616 6.902,97.125C7.434,98.421 8.011,99.697 8.653,100.942"/>
                    </g>
                    <g id="head-Bangs" serif:id="head/Bangs" transform="matrix(1,0,0,1,78.591549,38.043053)">
                        <path id="🎨-Background1" serif:id="🎨-Background" d="M91.187,89.791C90.349,88.552 88.333,79.561 87.045,78.178C87.142,72.867 88.609,54.478 84.417,46.212C85.299,45.32 87.642,37.636 87.045,34.731C89.02,28.648 76.332,18.987 71.504,16.376C49.063,4.338 16.544,17.626 6.338,39.927C0.205,53.357 0.092,68.394 -0.601,82.845C-0.683,85.938 -0.967,89.055 -0.964,92.145C-0.521,94.86 1.631,97.624 -0,99.882C-1.802,101.129 -5.444,104.166 -3.822,105.889C-2.872,106.68 -1.354,106.221 -0.323,106.982C0.202,107.276 0.53,107.92 1.144,108.018C6.752,107.805 10.709,107.786 16.335,107.559C18.798,107.478 22.548,108.52 25.375,106.446C35.249,111.94 31.119,103.969 33.115,98.294C39.196,100.35 51.308,106.909 57.789,107.121C63.055,107.772 67.98,104.703 73.158,105.402C79.59,107.792 87.129,108.324 93.021,104.279C94.491,103.22 96.127,104.447 97.981,103.303C101.582,101.58 93.004,91.703 91.187,89.791Z" style="fill:white;"/>
                        <path id="🖍-Ink1" serif:id="🖍-Ink" d="M83.836,45.506C83.756,45.048 84.388,44.705 84.632,45.17C86.408,48.548 87.119,52.46 87.748,56.19C88.384,59.96 88.803,63.746 88.827,67.573C88.844,70.517 88.577,73.495 88.075,76.441L88.136,76.651C88.249,77.036 88.363,77.421 88.478,77.805L88.651,78.382C88.986,79.489 89.303,80.601 89.648,81.705C90.366,84.01 91.123,86.321 92.049,88.552C92.953,90.728 94.053,92.827 95.36,94.789C96.62,96.68 98.619,98.279 99.507,100.379C99.816,101.111 99.359,102.079 98.504,101.962C98.449,102.029 98.364,102.078 98.249,102.088C97.586,102.146 96.964,102.091 96.302,102.028C95.933,101.994 95.933,101.488 96.302,101.454C96.583,101.427 96.857,101.404 97.131,101.388C95.238,100.266 93.887,98.075 92.807,96.281C91.42,93.977 90.372,91.459 89.517,88.912C88.64,86.298 88.019,83.629 87.519,80.919C87.462,80.607 87.408,80.295 87.355,79.982C86.724,82.665 85.912,85.299 84.949,87.83L84.814,88.182C82.595,93.938 79.589,99.749 74.589,103.554C74.363,103.726 74.131,103.89 73.897,104.05L74.182,104.213C74.465,104.375 74.743,104.53 75.016,104.657C76.026,105.129 77.123,105.488 78.208,105.743C80.449,106.269 82.802,106.118 85.088,106.192C85.838,106.216 86.264,107.34 85.498,107.706C82.973,108.908 80.246,108.653 77.639,107.807C76.35,107.388 75.14,106.801 74.02,106.036C73.557,105.719 73.02,105.329 72.566,104.877C67.566,107.676 61.351,107.989 55.786,106.988C52.894,106.468 50.092,105.518 47.626,103.893C45.254,102.33 43.564,100.351 42.357,97.788C42.25,97.561 42.547,97.278 42.73,97.5C46.521,102.106 53.046,104.028 58.785,104.394C61.848,104.589 64.981,104.427 67.925,103.51C70.718,102.64 73.115,101.046 75.116,98.925C79.172,94.627 81.603,88.78 83.348,83.215C85.247,77.162 86.151,70.792 86.338,64.457C86.432,61.247 86.313,58.01 85.809,54.836C85.31,51.688 84.382,48.641 83.836,45.506ZM26.994,18.236C27.263,18.099 27.452,18.454 27.224,18.629C22.496,22.256 18.263,26.855 14.836,31.723C8.516,40.7 4.463,51.089 2.597,61.884C1.495,68.259 1.207,74.73 1.317,81.19C1.361,83.757 1.507,86.315 1.67,88.874L1.854,91.711C1.94,93.032 2.011,94.343 1.956,95.671L1.941,95.978C1.853,97.523 2.005,99.081 1.618,100.588C1.419,101.361 0.329,101.483 -0.066,100.808C-0.143,100.676 -0.215,100.54 -0.285,100.402C-1.21,101.911 -2.408,103.26 -3.737,104.466C-3.102,104.33 -2.46,104.244 -1.802,104.323C-0.758,104.448 0.178,104.851 0.841,105.558C1.498,105.261 2.175,105.057 2.952,105.053C3.525,105.05 3.955,105.728 3.628,106.231C2.976,107.235 2.066,107.798 1.032,108.355C0.3,108.749 -0.575,108.412 -0.845,107.632L-0.861,107.584C-1.165,106.598 -2.784,106.757 -3.548,106.91L-3.773,106.956C-5.195,107.252 -6.584,107.631 -8.032,107.24C-8.967,106.988 -9.211,105.581 -8.31,105.114C-5.464,103.638 -3.075,101.657 -0.62,99.667C-1.162,98.337 -1.47,96.852 -1.825,95.5C-2.325,93.597 -2.471,91.549 -2.651,89.595C-2.994,85.878 -3.125,82.121 -3.088,78.39C-2.964,65.787 -0.809,53.146 4.694,41.734C7.105,36.735 10.273,32.109 14.016,28.015C17.738,23.944 22.085,20.73 26.994,18.236ZM22.588,79.953C22.442,79.75 22.727,79.483 22.927,79.614C27.254,82.457 30.257,86.775 32.194,91.518C34.112,96.213 35.29,101.965 33.398,106.861C33.097,107.641 31.655,107.931 31.508,106.861C30.848,102.085 30.746,97.303 29.296,92.66C27.858,88.058 25.399,83.843 22.588,79.953ZM19.233,95.457C19.257,95.373 19.394,95.387 19.388,95.478C19.28,97.162 19.207,98.867 18.995,100.541C18.892,101.355 18.756,102.164 18.64,102.976C18.521,103.809 18.539,104.649 18.055,105.361C17.414,106.303 15.71,106.038 15.767,104.741C15.807,103.846 16.218,103.271 16.603,102.486C16.85,101.982 17.065,101.461 17.273,100.938L17.581,100.154C18.194,98.598 18.781,97.068 19.233,95.457ZM11.485,90.996C11.511,90.863 11.725,90.895 11.718,91.027C11.603,93.411 11.334,95.768 10.913,98.116C10.721,99.187 10.497,100.252 10.261,101.313L10.159,101.768C9.906,102.886 9.742,104.2 9.175,105.199C8.609,106.197 7.263,105.472 7.438,104.466C7.641,103.292 8.362,102.11 8.781,100.982C9.167,99.94 9.505,98.88 9.821,97.815C10.486,95.573 11.031,93.29 11.485,90.996ZM25.914,97.613L25.964,97.562C26.161,97.347 26.455,97.49 26.549,97.716C26.933,98.642 26.741,99.734 26.713,100.717L26.708,100.931C26.688,101.927 26.702,102.86 26.251,103.779C25.703,104.895 24.259,104.202 24.147,103.209C24.025,102.125 24.537,101.064 24.868,100.05C25.078,99.404 25.231,98.734 25.551,98.148C25.278,98.195 25.005,98.29 24.755,98.358C24.643,98.388 24.6,98.224 24.707,98.186C25.121,98.039 25.587,97.93 25.914,97.613ZM83.518,100.899C83.386,100.751 83.55,100.555 83.721,100.634C85.779,101.596 87.704,102.221 89.974,102.426C90.958,102.515 90.964,104.061 89.974,103.971C87.605,103.758 85.121,102.695 83.518,100.899ZM11.121,68.416C12.933,64.339 18.664,60.723 22.507,64.514C22.579,64.585 22.506,64.739 22.402,64.696C20.011,63.705 17.085,64.965 15.43,66.768C14.118,68.198 13.329,70.034 13.172,71.97C13.016,73.907 13.479,75.929 14.765,77.427C15.439,78.213 16.35,78.957 17.422,79.051C18.505,79.147 19.407,78.384 20.43,78.177C21.201,78.021 21.783,78.505 21.859,79.266C22.026,80.945 20.355,82.071 18.907,82.345C17.349,82.639 15.759,82.318 14.417,81.473C10.081,78.745 9.146,72.863 11.121,68.416ZM51.8,28.458C52.588,27.704 53.928,28.453 53.637,29.528C53.019,31.814 51.705,33.747 50.249,35.582C48.849,37.347 47.349,39.043 45.74,40.621C44.143,42.19 42.407,43.641 40.583,44.937L40.033,45.326C38.74,46.238 37.371,47.16 35.924,47.817C35.574,50.829 34.891,53.8 33.856,56.645C32.86,59.385 31.592,62.032 30.057,64.51L29.836,64.865C28.425,67.128 26.727,69.656 24.332,70.897C24.261,70.934 24.189,70.957 24.118,70.97C24.653,71.328 25.106,71.777 25.375,72.423C25.67,73.13 25.054,73.798 24.463,74.031C23.213,74.525 21.994,73.689 20.871,72.797C20.823,72.904 20.778,73.012 20.74,73.121C20.489,73.833 20.415,74.561 19.767,75.034C19.459,75.258 19.08,75.057 18.886,74.803C18.251,73.968 18.909,72.831 19.467,72.149C19.544,72.054 19.624,71.965 19.707,71.879C19.471,71.705 19.24,71.551 19.017,71.433C17.705,70.738 15.761,70.615 15.006,72.153C14.948,72.272 14.766,72.21 14.766,72.088C14.768,70.199 16.703,69.172 18.382,69.033C19.609,68.931 20.795,69.361 21.9,69.863L22.106,69.957C22.517,70.148 22.94,70.328 23.345,70.53C23.279,70.356 23.28,70.151 23.384,69.948C24.654,67.467 26.835,65.45 28.407,63.152C29.967,60.872 31.306,58.433 32.375,55.885C33.412,53.413 34.225,50.862 34.793,48.261C34.606,48.3 34.395,48.133 34.408,47.938C34.44,47.465 34.671,47.039 35.078,46.857C35.525,44.41 35.753,41.922 35.74,39.414C35.739,39.22 36.021,39.227 36.037,39.414C36.235,41.644 36.251,43.896 36.085,46.135C37.141,45.162 38.256,44.237 39.273,43.239C40.804,41.737 42.286,40.194 43.714,38.595C45.172,36.963 46.55,35.27 47.81,33.48L48.469,32.541C49.483,31.102 50.525,29.678 51.8,28.458ZM49.812,12.389C58.507,11.846 67.793,12.915 75.603,16.999C79.893,19.241 83.208,22.63 85.577,26.847C86.991,29.366 88.064,32.154 88.471,35.022C88.888,37.968 88.398,40.595 86.518,42.936C85.771,43.866 84.513,42.827 84.697,41.876C85.823,36.055 83.997,30.303 80.759,25.483C76.06,18.49 67.854,15.383 59.865,13.997C55.939,13.317 51.958,13.032 47.976,13.171C44.94,13.276 41.825,13.559 38.944,14.581C38.822,14.624 38.774,14.435 38.891,14.391C42.328,13.077 46.165,12.617 49.812,12.389ZM62.707,25.553C63.155,25.269 63.703,25.56 63.856,26.021C64.399,27.644 63.262,29.789 62.501,31.195C61.641,32.785 60.534,34.271 59.391,35.668C57.104,38.46 54.099,40.791 50.801,42.255C50.599,42.345 50.364,42.101 50.549,41.929C53.101,39.552 55.414,37.003 57.417,34.144C58.401,32.739 59.222,31.258 60.006,29.735C60.707,28.373 61.367,26.403 62.707,25.553ZM77.331,27.466C77.617,26.466 79.246,26.636 79.179,27.716C79.005,30.504 77.69,33.303 76.261,35.666C74.79,38.099 72.926,40.268 70.791,42.141C70.685,42.233 70.541,42.091 70.637,41.987C72.479,39.969 73.968,37.67 75.07,35.168C76.171,32.67 76.586,30.064 77.331,27.466ZM69.233,27.014C69.545,26.145 71.036,26.21 70.945,27.246C70.693,30.095 69.022,33.08 67.475,35.433C65.832,37.929 63.736,40.128 61.393,41.975C61.305,42.044 61.181,41.93 61.267,41.849C63.371,39.865 65.078,37.574 66.429,35.018C67.118,33.714 67.697,32.356 68.154,30.954C68.576,29.656 68.774,28.293 69.233,27.014Z"/>
                    </g>
                    <g id="face-Monster" serif:id="face/Monster" transform="matrix(1,0,0,1,112.183099,77.354207)">
                        <path id="🖍-Ink2" serif:id="🖍-Ink" d="M21.372,47.526C22.905,47.23 24.811,47.874 26.339,48.157L26.453,48.177C28.306,48.501 30.155,48.892 32.028,49.083C33.817,49.266 35.644,49.299 37.432,49.093C38.291,48.994 39.143,48.826 39.978,48.601C40.335,48.504 40.689,48.396 41.039,48.277L41.078,48.261C41.335,48.155 42.487,47.593 42.782,47.515C43.199,47.405 45.219,47.701 45.523,48.132C46.045,48.871 38.816,51.711 38.803,51.675C36.696,51.958 34.54,51.918 32.428,51.639C31.09,51.463 29.773,51.208 28.475,50.865C28.475,50.865 21.79,48.331 21.294,47.824C21.206,47.734 21.236,47.552 21.372,47.526ZM36.711,22.214C40.556,21.913 41.512,14.27 41.65,17.174C43.54,15.561 46.261,16.782 47.852,18.294C49.688,20.04 50.617,22.673 50.189,25.173C49.762,27.664 47.96,29.861 45.523,30.602C44.356,30.956 43.056,30.964 41.883,30.635C41.485,30.522 40.996,30.349 40.545,30.107C40.571,30.21 40.597,30.314 40.622,30.417C41.207,32.896 41.539,35.683 40.661,38.134C39.249,42.074 37.573,42.185 31.077,41.369C29.354,41.152 28.816,41.06 28.89,39.188C28.929,38.205 29.486,37.067 30.636,37.134C31.527,37.185 30.522,38.492 30.855,39.512C30.855,39.512 31.514,39.628 33.348,39.689C35.766,39.769 37.697,39.894 38.699,38.042C39.868,35.883 39.725,33.116 39.352,30.768C38.985,28.462 38.167,26.353 37.299,24.219C37.207,24.236 31.779,24.587 29.872,23.336C30.076,25.267 29.674,27.255 28.578,28.89C27.356,30.712 25.515,31.677 23.372,31.972C21.291,32.26 18.879,32.318 16.824,31.824C12.449,30.774 10.906,25.37 12.23,21.47C13.012,19.162 15.196,17.087 17.624,16.563C18.875,15.74 20.554,15.496 21.998,15.609C24.153,15.777 26.277,16.708 27.72,18.345C28.272,18.97 28.726,19.678 29.075,20.435C29.193,20.343 29.33,20.273 29.484,20.237C29.726,20.18 29.937,20.168 30.173,20.251C30.291,20.293 30.461,20.44 30.563,20.535L30.796,20.809C31.082,21.142 31.353,21.422 31.862,21.629C33.281,22.206 35.204,22.332 36.711,22.214ZM21.22,17.753L21.1,17.754C19.695,17.776 18.409,18.312 17.056,18.595C16.943,18.619 16.831,18.607 16.729,18.57C15.081,19.67 13.945,21.399 13.79,23.675C13.684,25.252 14.068,26.969 15.004,28.263C16.069,29.736 17.785,29.963 19.474,30.007L19.646,30.011C22.84,30.073 26.354,29.884 27.492,26.312C28.335,23.668 27.435,20.459 25.088,18.875C23.948,18.106 22.587,17.751 21.22,17.753ZM46.953,19.649L46.859,19.539C45.606,18.101 43.62,16.792 41.662,17.516L41.667,17.758C41.668,17.798 41.668,17.839 41.668,17.879C41.662,20.656 40.587,23.247 37.943,24.062C38.652,25.074 39.222,26.197 39.679,27.363C39.84,27.258 40.035,27.191 40.263,27.168C41.193,27.073 41.727,27.948 42.534,28.274C43.289,28.58 44.146,28.658 44.944,28.501C46.688,28.155 47.912,26.65 48.341,24.98C48.826,23.092 48.185,21.113 46.953,19.649ZM20.395,21.985C20.976,21.002 22.412,21.145 22.987,22.011L23.015,22.055L23.021,22.047C23.979,23.289 23.516,25.251 22.124,25.95C21.008,26.509 19.589,26.363 18.847,25.273C18.681,25.028 18.574,24.741 18.535,24.45C18.508,24.252 18.523,24.054 18.568,23.857L18.557,23.903C18.579,23.804 18.613,23.648 18.622,23.611C18.721,23.21 18.956,22.781 19.25,22.49C19.553,22.192 19.974,22.01 20.395,21.985ZM44.303,20.964C44.819,20.964 45.276,21.18 45.648,21.522C46.178,22.008 46.251,22.708 46.137,23.372C46.102,23.575 46.054,23.771 46.003,23.97L45.96,24.151C45.952,24.181 45.944,24.21 45.935,24.24C45.903,24.363 45.853,24.477 45.793,24.585C45.572,25.406 44.68,25.814 43.894,25.635C43.523,25.55 43.154,25.243 42.966,24.921C42.904,24.815 42.86,24.709 42.829,24.603L42.676,24.24C42.647,24.153 42.629,24.059 42.606,23.97C42.555,23.771 42.506,23.575 42.47,23.372C42.349,22.686 42.445,22.035 42.959,21.522C43.304,21.176 43.816,20.964 44.303,20.964Z"/>
                    </g>
                    <g id="accessories-Glasses-3" serif:id="accessories/Glasses-3" transform="matrix(1,0,0,1,88.521127,88.978474)">
                        <path id="🖍-Ink3" serif:id="🖍-Ink" d="M77.563,20.78C76.141,22.691 73.504,23.3 71.072,23.09C65.826,22.585 64.175,16.624 64.003,11.992C67.52,12.982 63.705,5.97 75.73,5.199C79.969,4.846 78.801,7.407 80.674,9.279C80.635,13.206 79.982,17.473 77.563,20.78M52.577,16.267C49.479,30.777 32.519,27.325 30.738,14.246C32.383,13.084 31.949,10.216 33.993,9.177C37.232,7.106 41.282,7.195 44.96,7.243C49.662,7.567 51.002,9.515 53.417,11.641C53.301,13.061 52.966,14.743 52.577,16.267M84.282,2.796C84.108,2.767 83.934,2.74 83.76,2.715C83.624,2.638 83.465,2.578 83.279,2.542C82.855,2.435 82.435,2.362 82.015,2.323C75.987,0.966 62.042,2.893 61.466,8.039C59.547,8.68 57.886,8.106 55.661,8.163C53.967,1.082 24.689,2.081 23.281,6.351C23.276,6.349 23.271,6.348 23.265,6.346C21.912,5.927 19.918,6.028 18.369,5.962C15.062,5.893 11.752,6.187 8.517,6.885C2.459,7.848 -5.809,8.976 -1.596,16.544C-1.595,16.545 -1.594,16.546 -1.593,16.548L-1.593,16.547C-0.866,17.292 0.366,16.692 0.412,15.684C-1.005,12.099 2.195,11.668 4.656,10.638C10.782,8.437 17.018,8.131 23.353,8.812C23.829,9.374 24.553,9.863 25.317,10.119C29.553,10.823 27.32,13.966 29.998,14.423C29.506,25.38 42.803,31.361 50.508,24.158C53.584,21.149 54.318,16.692 55.031,12.675C55.408,12.59 55.648,12.383 55.788,12.11C56.695,11.205 57.265,10.368 59.058,10.119C60.852,9.871 62.232,10.37 62.419,10.523C62.466,10.617 62.517,10.713 62.575,10.808C62.657,10.949 62.769,11.063 62.896,11.152C61.124,22.062 69.591,28.962 78.139,23.304C81.853,19.808 82.638,14.457 82.793,9.681C83.297,9.377 83.615,8.788 83.441,8.048C83.201,7.027 83.764,6.143 84.661,5.699C85.827,5.123 85.621,3.018 84.282,2.796"/>
                    </g>
                </g>
            </g>
        </g>
    </g>
</svg>
